<svg xmlns="http://www.w3.org/2000/svg" viewBox="0 0 512 512" fill="white" ><path d="M351 151c25 22 42 54 46 88v2a143 143 0 0 1-94 149l-3 1-10 3-3 1a145 145 0 0 1-147-57l-1-2c-22-32-29-71-22-109 5-23 15-44 30-62l1-2c20-22 45-37 74-45l2-1c45-12 93 4 127 34Zm-135 30a60 60 0 0 0-12 41h29l1-10c1-6 3-11 8-15 6-4 12-5 20-4l8 4 3 1 2 4 2 4c2 7 2 13-1 19s-8 9-13 12c-11 7-18 16-21 28l-1 24h30v-13c0-4 1-7 3-10l8-7a50 50 0 0 0 19-71c-8-12-19-21-33-25-20-2-38 3-52 18Zm25 139v29h30v-29h-30Zm185-49h86c-1 20-1 20-3 29v3c-4 22-11 43-21 63H387l4-7c20-27 29-55 35-88Zm-39-125h101c11 22 18 45 22 69v2l2 24h-86l-4-21-3-11-1-2c-6-20-15-38-27-54l-4-7ZM0 271h86l4 21c6 26 16 49 33 70l2 4H24c-11-22-18-45-22-69v-2l-2-24Zm24-125h101l-4 7c-17 23-28 49-33 77l-2 11H0c1-20 1-20 3-28v-4c4-22 11-43 21-63Zm161 265 2 1a185 185 0 0 0 140-1l-5 19-1 4a272 272 0 0 1-13 30c-9 19-22 37-41 47-8 3-18 2-25-1l-16-13-2-2c-17-18-26-42-34-65l-1-2c-4-12-4-12-4-17ZM270 2l16 13 2 2a185 185 0 0 1 37 74l1 2 1 2-1 6-4-1a178 178 0 0 0-137 1l5-19 1-4 12-28 1-2c9-19 22-37 41-47 8-3 18-2 25 1Zm-75 5c-1 4-4 8-6 11l-13 24-1 2-13 32-1 3-10 38H41l8-14 2-2a206 206 0 0 1 24-27 202 202 0 0 1 28-24c24-18 61-43 92-43Zm122 0a118 118 0 0 1 25 7 248 248 0 0 1 119 87l1 2a853 853 0 0 1 6 8l3 6H361l-8-30c-8-26-17-53-34-75l-2-5Zm44 388h110l-4 9-2 1-1 3-2 2a879 879 0 0 1-6 8 225 225 0 0 1-48 45c-24 18-61 42-91 42 1-4 4-8 6-11l13-24 1-2 13-32 1-3 10-38Zm-320 0h110l8 30a250 250 0 0 0 36 80c-8-1-15-3-22-6l-3-1c-34-12-65-31-91-56l-2-2a222 222 0 0 1-32-37l-1-2-3-6Z"/></svg>
