<svg version="1.0" xmlns="http://www.w3.org/2000/svg" viewBox="0 0 512 512" fill="white"><path d="M238 33c-21 2-44 7-61 13-21 9-46 23-62 36l-7 6 4 3c20 15 34 40 37 66a92 92 0 0 1-115 98c-2 0-2 0-2 12a222 222 0 0 0 191 211c16 2 50 2 65 0 34-6 63-17 89-34l11-7-4-5c-4-7-7-10-9-18-10-29 9-63 39-71 12-3 29-1 40 5l5 3 3-8c12-29 17-55 17-87 1-25-2-44-9-67l-3-9h-10c-18 0-33-6-45-19a66 66 0 0 1-15-73l2-4-3-3a233 233 0 0 0-158-48zm25 40c4 2 9 7 12 12 2 4 3 6 3 12 0 8-2 13-7 18-17 17-44 5-44-18 0-9 4-16 12-22 5-4 16-5 24-2zm103 11c6 3 6 13-1 16-3 1-5 1-9-2-4-4-2-12 4-14h5zm-155 61c5 5 2 15-6 15-4 0-8-4-8-9 0-7 8-11 14-6zm162 55c11 4 21 14 24 26 4 16-5 33-20 41-5 2-8 2-14 2-8 1-9 0-15-3a35 35 0 0 1-11-55c5-5 11-9 17-11h19zm-122 37c5 5 1 14-6 14-4 0-7-1-8-5-1-3 0-8 3-10s8-1 11 1zm176 53c4 4 3 11-2 14-9 4-16-7-10-13 4-4 9-4 12-1zm-320 14c5 2 12 8 15 13 10 20-8 43-29 37-7-3-14-8-17-15-4-11-1-24 8-31 6-5 15-6 23-4zm160 3c25 7 41 28 41 55 0 14-6 28-16 39a55 55 0 0 1-65 10c-8-4-19-15-24-24-16-31 0-69 34-79 7-2 22-3 30-1zM156 408c7 5 3 15-5 15-7 0-11-9-5-14 4-3 7-4 10-1zm162 25c3 4 3 6 2 10-4 8-16 5-16-4 0-3 1-4 3-6 3-3 8-3 11 0z"/><path d="M355 218c-9 4-13 16-8 25 5 10 18 13 27 5 10-8 8-24-4-30-6-3-9-2-15 0zM239 325c-6 2-13 7-16 11-15 20-10 48 11 59 19 10 44 3 53-16 9-21 1-43-18-52-7-4-22-5-30-2zM411 99c-2 5-2 20-1 26 2 8 7 17 13 23 8 9 18 14 31 15l5 1v-3a197 197 0 0 0-43-62l-4-3-1 3zm-323 9a225 225 0 0 0-54 129c2 2 16 4 27 4a75 75 0 0 0 71-76c0-14-1-15-4-23-4-12-8-19-16-27-6-7-15-14-17-14l-7 7zm330 252a39 39 0 0 0-19 63l3 3 12-12c14-14 25-28 35-44l2-4-3-2c-9-5-22-6-30-4z"/></svg>