<svg xmlns="http://www.w3.org/2000/svg" viewBox="0 0 512 512" fill="white" stroke="white"><path d="M188 292c6 2 9 5 14 9l2 2c9 7 17 17 21 28-1 4-4 6-6 9l-3 2-6 6-2 2-3 3c-3 4-4 7-4 12 1 14-1 22-10 33-5 6-5 6-5 13a311 311 0 0 0 7 31l-18 9-2 1c-8 3-15 4-23 4l-4-13-1-3a465 465 0 0 1-2-7v-2l-4-5-7-1c-15 1-15 1-19-3-3-3-6-7-8-12-3-6-3-6-9-10a51 51 0 0 0-9 0 405 405 0 0 0-26 0c-2-7-5-14-5-22l-1-3c-1-23 5-44 19-62l1-2c2-2 3-4 6-5 3 0 4 1 6 3l2 1 5 4c5 3 8 5 14 4l11-4c10-3 16 0 25 3 9 2 15 0 24-3l3-1c6-2 6-2 11-6l3-7 3-8Zm-73 59-3 2-7 5-2 1-6 6c-1 6 2 11 5 16l1 2 1 3 2 2c2 3 3 3 6 4h12a995 995 0 0 0 19 0h2c5 0 9 0 13-3 3-5 2-11 2-17v-3c0-8 0-8-3-15l-8-3-2-1a346 346 0 0 0-9-3c-9-4-15-2-23 4Z"/><path d="M323 10c3 1 5 4 7 6l2 3 2 2-7 9a268 268 0 0 0-22 20l-10 11-11 9-11 11-13 12-10 10-11 10-8 9-13 11-8 9-13 11-8 9-13 11-8 9-13 11-8 9-13 11-8 9-13 11-8 9-13 11-10 10-11 10c-26 24-43 53-46 88a120 120 0 0 0 121 126c32-1 59-13 82-35l13 13c-17 17-37 28-60 35h-2a122 122 0 0 1-37 4c-11 0-21 0-31-3l-2-1c-20-5-38-14-53-27l-2-1c-18-17-33-38-40-61l-1-3c-4-13-6-26-5-40v-2a122 122 0 0 1 5-37c8-28 25-50 46-69a278 278 0 0 0 18-17l11-10c3-5 8-8 12-12l9-8c3-5 8-8 12-12l9-8c3-5 8-8 12-12l9-8 10-10 11-11 13-12 10-10 11-10 9-8c3-5 8-8 12-12l9-8c3-5 8-8 12-12l9-8c3-5 8-8 12-12l9-8c3-5 8-8 12-12l10-10 11-10 8-9 4-1Z"/><path d="M491 194c3 1 5 4 7 6l2 3 2 2-13 14-2 3a5941 5941 0 0 1-57 57l-2 2-10 8-12 12-3 2a5422 5422 0 0 0-62 63l-2 2-12 11-9 9-3 3-4 4-10 10a7469 7469 0 0 0-41 42l-2 2-2 1-1 2-4 1-7-5-2-3-2-4 4-5 2-2 2-2 2-2a1308 1308 0 0 1 39-38l2-2a5284 5284 0 0 0 62-62l2-2 10-9 12-12 3-2a5422 5422 0 0 0 62-63l2-2 12-11 9-10a7031 7031 0 0 1 17-17l2-2 2-1 1-2 4-1Zm-3-183 3 3 2 1 8 9-214 214-9-7-2-2-2-2 6-8 2-2 2-3 3-2 7-7 8-8a13997 13997 0 0 1 96-96l1-2a690367 690367 0 0 0 89-88Zm-7 95 9 7 2 2 2 2-6 8-2 2-3 3-2 2a4311 4311 0 0 1-32 33l-14 14-5 5-13 13a11005 11005 0 0 0-29 30l-11 11-3 3a8148 8148 0 0 1-26 26 2071 2071 0 0 1-12-11l8-10 9-9c4-6 9-10 14-15l5-5 12-12a10566 10566 0 0 0 16-16l11-12 14-14 5-5 13-13a11005 11005 0 0 0 35-36l2-2 1-1Zm-94-80c3 1 5 4 7 6l2 3 2 2a254 254 0 0 1-27 28 5641 5641 0 0 0-17 18l-14 12-14 14a2848 2848 0 0 1-56 55l-3 3-3 3-6 6-9-7-2-2-2-2a258 258 0 0 1 27-29 6142 6142 0 0 0 19-18c9-10 9-10 14-13l14-14a2848 2848 0 0 1 53-52l3-3 4-4 2-3 2-2 4-1ZM279 280c22 3 22 3 27 9l7 15 5 9 2 7h-2c-9-1-18-2-25 3-7 6-13 12-18 19l-2 2h-1a479 479 0 0 1 7-64Zm-106 4c2 4 0 7-1 12-3 4-7 5-12 6l-3 1c-7 2-14-1-21-4-9-2-15 0-24 3-5 2-5 2-9 1l-9-6c1-3 2-4 5-6a203 203 0 0 1 6-3c21-10 46-11 68-4Zm58 65a92 92 0 0 1-24 82h-2l-3-10v-2c-2-7-2-7-1-11l1-2 1-2 6-9c4-6 6-11 6-19s0-14 6-20c7-7 7-7 10-7ZM70 416c8-1 16-3 23 0 6 5 9 12 13 19 1 3 3 3 6 4h4l3 1h11l4 16c-24-2-43-14-59-32l-5-8Zm187-174 9 7 2 2 2 2-5 7-2 2-2 2-1 2a2466 2466 0 0 1-21 20l-9-7-2-2-2-2 5-7 2-2 2-2 1-2a2466 2466 0 0 1 21-20Zm-50-42 22 4 3 1 8 2-5 7-2 1-2 2-2 2a1282 1282 0 0 1-24 19l-5 2a190 190 0 0 1 7-40Zm-54 26 9 7 2 2 2 2-5 7-2 2-2 2-1 2-5 4-9-7-2-2-2-2 5-7 2-2a402955274 402955274 0 0 1 8-8Zm-12 138 3 1v11h-28l-2-6c10-8 15-12 27-6Z"/></svg>