<svg xmlns="http://www.w3.org/2000/svg" viewBox="0 0 512 512" fill="white" stroke="white"><path d="M359 240c3 2 3 3 4 6 0 6-3 9-6 13l-3 2-1 2a1495 1495 0 0 1-46 45 47195 47195 0 0 0-60 59l-2 3-3 4 2 1 4 3c5 16 5 34-3 49a99 99 0 0 1-49 46c-14 3-28 3-42 3h-3c-34 0-34 0-46-10l-7-10-10-9c-51-42-51-42-54-68-1-22 8-40 22-56 15-17 31-29 55-31a194 194 0 0 1 33 2h4c8 1 13 3 18 9a325 325 0 0 0 22 21l11 9 15 15 9 7 3 3 2 2a248 248 0 0 0 29-28 11567 11567 0 0 1 86-87l3-2c4-4 7-4 13-3Zm-244 82c-3 4-3 8-2 12 2 7 6 12 13 15 5 3 12 3 18 1 7-2 11-8 14-13 2-5 2-10-1-15-3-1-4-2-8-1-4 3-5 7-6 11l-3 3-10-1-3-9-4-4-8 1Zm-55 41c-4 6-4 12-3 19 2 7 6 11 12 15 6 3 13 3 19 1s11-7 14-13c2-6 2-14 0-19-4-6-9-11-16-13-11-1-18 1-26 10Zm79 25c-8 9-10 20-10 32 0 11 6 19 14 27 9 7 19 9 31 8 11-1 19-7 26-15 7-10 9-21 7-33-3-11-10-20-19-25-17-10-35-6-49 6Z"/><path d="m490 30 4 4v8l-3 4a1503770681 1503770681 0 0 0-25 25l-8 8a35309 35309 0 0 1-72 72l-2 2a37556 37556 0 0 0-125 126c-8 7-8 7-14 8l-6-3c-2-3-2-3-2-7l7-10 3-3a1102630234 1102630234 0 0 1 14-14l8-9a13226 13226 0 0 1 108-108l3-2 4-4 2-2 2-2a118671 118671 0 0 1 85-86l3-2 2-2c4-4 7-4 12-3Zm-148-5c3 3 3 5 3 9-2 6-7 9-11 13l-3 3-7 8-8 8a7023 7023 0 0 1-102 101l-2 2a620041 620041 0 0 0-85 85l-3 3-2 2-2 2c-3 3-6 3-10 3l-4-1-3-9 4-6 2-2 11-11 3-3 7-7 8-8a31708 31708 0 0 1 59-59l2-2 2-2 4-4 2-2A48913 48913 0 0 0 321 34l3-3 2-2 2-2c5-4 8-5 14-2Zm142 167 4 4v8l-3 4-2 2-9 9-2 3a6481 6481 0 0 1-130 129 4019 4019 0 0 1-25 25l-2 2c-4 4-6 6-12 7l-6-3c-2-3-2-3-2-7 2-6 6-9 10-13l2-3 7-7a10120 10120 0 0 0 85-84l1-2 4-3 1-1 2-2a63714 63714 0 0 1 62-62l2-2 2-2c3-3 7-3 11-2ZM398 44l4 4c1 4 1 6-1 10l-19 20a20242 20242 0 0 0-120 120l-2 1c-2 3-5 5-8 6-4 0-6 0-9-3-2-4-2-7-1-11l6-6 1-2 6-6a2964 2964 0 0 0 17-16l12-12a9148 9148 0 0 1 72-72l2-3a12159 12159 0 0 1 24-23l2-2c4-5 8-6 14-5ZM179 394c6 3 11 8 13 15 1 8 1 16-4 22-5 5-9 9-16 9-9 0-15 0-21-6-6-7-7-12-7-22 0-7 4-12 10-17 7-4 18-5 25-1Zm46-178c4 3 5 4 6 8-2 10-14 18-20 25a488 488 0 0 0-9 9l-2 2c-4 4-7 5-13 5-3-1-4-1-5-4v-10a54 54 0 0 1 10-10 965 965 0 0 1 22-23c4-3 7-2 11-2Zm206-48c3 2 3 3 4 6 0 6-3 9-7 14l-4 3-2 2a1825 1825 0 0 1-15 15l-2 2-2 2-2 2c-2 2-5 2-9 2l-4-1-3-9c3-8 14-16 20-22a1761 1761 0 0 0 9-9l2-2c5-5 8-7 15-5ZM84 368l4 4c1 4 1 7-1 11-4 2-7 2-11 1l-4-4c-1-4-1-7 2-10s6-3 10-2Z"/></svg>