<svg xmlns="http://www.w3.org/2000/svg" viewBox="0 0 512 512" fill="white" stroke="white"><path d="m192 229 14 2h6a7837 7837 0 0 1 31 0h3c12 0 23 4 32 13l11 14 5 7 2 2 11 12c12 13 19 24 18 42 0 6-2 12-4 18-4 15-6 31-7 47-1 15-3 28-14 39l-16 10a693 693 0 0 0-51 31c-20 14-34 16-58 12a737 737 0 0 1-29-3 5329 5329 0 0 1-13-1 64 64 0 0 1-53-24c-24-25-33-52-32-87 0-11 1-21 4-31l1-21c1-14 2-23 12-34a315 315 0 0 1 41-32l17-14 2-2c21-16 44-8 67 0Zm-57 13c-5 8-7 15-6 24 2 8 8 14 14 19 7 3 15 3 23 1 7-3 13-8 16-15s3-14 1-21c-3-7-8-13-15-16-12-5-25-2-33 8Zm90 22c-5 6-6 11-6 18 1 7 4 12 9 17 7 5 13 6 21 5 8-2 12-7 17-13 3-6 3-12 1-18-3-8-7-12-14-16-11-4-21-1-28 7ZM87 287c-4 6-6 11-5 17 0 6 3 11 7 15 7 5 12 6 21 5 6-2 11-6 14-11 3-6 4-12 2-18-3-6-7-11-13-14-10-3-19-1-26 6Zm168 45c-3 5-4 10-4 16 1 6 4 12 10 15 5 3 10 5 16 4 7-2 11-5 15-11 3-5 4-11 3-16-2-6-6-11-12-15-10-5-20-1-28 7Zm-87 6c-3 5-4 11-3 17 2 7 6 11 12 15 6 2 11 3 17 1 6-3 10-6 13-12 2-6 2-13 0-19-4-6-9-9-15-11-10-2-17 2-24 9Zm-90 29c-5 5-7 11-6 18s5 13 10 17c5 3 10 4 16 4 8-2 13-7 18-13 3-5 3-11 2-17-3-7-7-11-13-15-10-4-19-2-27 6Zm93 33c-7 8-10 16-9 26 2 9 6 17 13 22 8 5 16 7 26 5s17-9 22-18c3-7 3-15 1-23l-3-6-1-2c-5-7-11-11-19-13-12-1-21 1-30 9ZM412 16c3 2 4 4 5 8-2 9-15 19-22 25a31458 31458 0 0 0-125 127l-2 1c-3 3-5 4-10 4-3 0-4 0-7-2-1-4-2-5-1-9 6-8 14-15 21-22A31458 31458 0 0 0 396 21l2-1c4-4 8-5 14-4ZM285 68l4 4c1 4 1 6-1 10l-2 2-2 2a854 854 0 0 1-26 26l-2 2a17080 17080 0 0 1-72 73c-8 8-8 8-13 9l-7-1c-3-4-3-6-3-10a53 53 0 0 1 11-14 22571 22571 0 0 1 15-15l9-9a17275 17275 0 0 1 74-73l2-2c4-4 7-5 13-4Zm189 181c3 1 3 1 5 4v9l-10 11a1413 1413 0 0 0-13 13l-9 9a3983 3983 0 0 1-71 71c-9 10-9 10-15 10l-7-3c-1-4-2-5-1-9l17-19 4-3 8-8 9-9a31418 31418 0 0 1 71-71l2-2c3-3 6-3 10-3Zm-24-80c3 2 4 3 5 6 0 4-1 7-4 10l-2 2-2 3-3 2-2 3-8 7-6 6a7717 7717 0 0 1-59 59l-2 3c-5 4-8 7-14 8-6-2-6-2-7-5v-8l4-5 2-2a1146 1146 0 0 1 61-60l8-9a2895 2895 0 0 1 15-14l1-2c4-4 7-5 13-4Zm-77-7 4 4c1 5 1 7-2 11l-3 4-2 1a513 513 0 0 1-38 38 632 632 0 0 0-9 10l-2 1c-3 3-5 4-9 4l-6-1c-2-2-3-5-3-8s1-4 3-5l2-3a1136 1136 0 0 1 54-54c3-3 6-3 11-2Z"/><path d="M200 406c5 2 8 5 10 10 1 6 1 10-2 16-4 4-7 6-14 7-5-1-8-1-12-5s-5-8-5-14c1-6 4-9 9-13 4-2 9-1 14-1Zm-37-158c3 3 6 5 6 9 1 8 1 8-2 12-4 3-7 3-13 3-3 0-5-1-7-3-3-4-3-8-3-13 2-4 4-6 7-8h12Zm80 23c4 0 5 0 8 2 2 3 3 5 2 9 0 4-2 5-5 7-4 1-7 0-11-2-3-3-3-5-3-9 2-5 4-7 9-7ZM101 376c2 4 2 6 2 10-2 3-3 4-6 5l-8-2c-2-4-2-6-2-10 4-6 8-5 14-3Zm7-81c3 2 3 3 4 6l-1 6-7 3-6-3-1-9c2-4 7-4 11-3Zm168 43 4 5-1 6-5 3-6-2-2-6c2-6 4-7 10-6Zm-88 5 5 3c1 7 1 7-2 10h-8l-3-3v-6c3-3 4-4 8-4Z"/></svg>