<svg xmlns="http://www.w3.org/2000/svg" viewBox="0 0 512 512" fill="white" stroke="white"><path d="M228 148c5 2 7 5 9 10 1 5 0 9-3 13-2 4-5 7-9 10l-2 2a2618 2618 0 0 1-61 60l-2 2c-4 5-8 10-8 16 0 5 1 9 4 13 4 4 8 5 14 5 7-2 11-5 16-11a85091 85091 0 0 1 19-19l2-2c4-5 9-8 15-9 5 0 9 1 13 5 3 4 4 9 3 14l-8 11-2 2-6 6c-5 5-9 9-10 16 0 6 1 10 4 13 4 4 8 5 13 5h2c6-1 11-5 15-10l1-1a1319 1319 0 0 0 43-44l2-1c4-4 8-7 14-7 5 0 8 2 12 6 2 3 3 5 3 9v3c-1 6-7 11-12 16l-2 2a2758 2758 0 0 1-62 62l-3 2c-5 5-8 10-9 18 0 4 2 7 4 10 5 5 9 6 15 6 11-1 19-14 26-21a651 651 0 0 1 7-8c4-3 8-5 12-5 7 1 11 2 15 7 1 4 2 8 1 12-2 4-4 8-8 11l-1 1a954 954 0 0 1-17 18l-8 7a11948 11948 0 0 1-74 74c-15 15-32 26-53 32l-4 1c-24 6-51 3-74-8l-2-1a103 103 0 0 1-27-19c-18-15-28-36-33-58l-1-3a115 115 0 0 1 30-100l2-2 21-21a29770 29770 0 0 0 49-49l1-2 2-1a1289320 1289320 0 0 0 89-90l2-1c6-6 13-11 21-7ZM55 344a89 89 0 0 0-19 67c3 20 13 38 27 52l2 2c17 16 39 23 61 22 25-1 47-13 64-32 16-20 21-43 19-68-3-19-12-35-26-49l-2-2a91 91 0 0 0-46-22l-3-1c-30-2-57 9-77 31Z"/><path d="M169 337c16 13 27 28 31 49 2 25-4 47-19 66a79 79 0 0 1-52 26h-2v-2c-3-12-8-23-19-30-12-7-23-9-36-7l-11 4-3 1a82 82 0 0 1-12-61c2-12 8-24 17-34l2-3c27-28 72-33 104-9Zm-76 13-3 4 2 4h10c7 0 13 1 19 6 5 5 7 11 7 17s-2 11-6 16c-6 5-13 7-21 7-8-1-13-4-18-10-4-6-4-13-4-20l-5-2c-3 2-3 2-4 5-1 9 2 17 7 24 4 6 11 10 18 12 13 1 23-1 33-9 6-6 10-14 10-23s-4-17-10-24c-10-8-23-12-35-7Zm70 34 1 7h2c8 0 8 0 12 2 3 4 4 7 4 12 0 4 0 7-3 10-4 2-7 1-11 1l-3-3-1-3-3-1c-3 0-3 0-5 2-1 4 0 5 2 8 4 4 8 7 13 7 5 1 9 0 13-3 6-5 8-10 8-18s-2-14-8-20c-8-5-13-4-21-1Zm134-204c4 3 7 8 7 13 1 9-1 13-7 19-6 7-12 12-21 12-5 0-8-1-12-4-5-6-6-10-6-18 1-9 9-15 15-21 8-5 16-6 24-1Zm200 124 5 3c0 4 0 6-3 9l-7 7-2 3-8 8-8 7a4180 4180 0 0 1-58 58l-2 3-3 2-2 2c-3 2-5 3-8 3l-4-4 1-5 2-2 2-2 2-2 2-2 7-7 3-3 8-9 2-1a12128 12128 0 0 1 62-63c5-5 5-5 9-5ZM376 0l3 5c-2 9-13 16-19 22a17271 17271 0 0 0-33 34l-3 2c-3 3-3 3-7 3-3 0-3 0-5-2v-6c5-7 12-13 18-19a17271 17271 0 0 0 33-34l3-2c3-3 5-3 10-3Z"/><path d="m101 451 2 1c8 5 12 13 15 22v4c-21-2-40-10-54-26 8-9 28-6 37-1Zm323-252c4 2 5 4 7 8 1 5 1 9-2 13-3 5-6 6-12 6-5 0-7-1-11-4-3-4-4-8-3-13 2-5 4-7 8-10h13ZM99 118c4 2 7 4 9 9 1 4 0 8-1 12-3 4-6 6-10 7-6 0-10-1-14-4-3-4-3-8-3-13 0-4 3-7 6-10 4-2 8-2 13-1Zm276 303c4 1 6 3 8 6 3 4 3 8 2 13-2 4-4 7-9 9-5 1-8 0-12-2-5-4-7-7-7-13 0-3 1-5 3-8 5-4 8-6 15-5Zm103-276 5 3v7l-6 7-2 2a816 816 0 0 1-15 15l-2 1c-3 4-6 6-11 6l-4-4c0-5 3-7 6-10l2-2 2-2a860 860 0 0 1 17-17c4-5 4-5 8-6ZM159 66l1 8-7 7-2 2a585 585 0 0 1-15 15l-1 2c-4 4-5 5-10 6l-3-1-2-6c1-4 4-7 8-10l2-2 6-6a3871 3871 0 0 0 12-12l2-2c3-3 5-2 9-1Zm138 9 6 6c1 5 1 9-2 13-4 3-5 3-10 3-5-1-6-2-9-6V80c4-5 8-6 15-5Z"/></svg>