<svg version="1.0" xmlns="http://www.w3.org/2000/svg" fill="white" stroke="white" viewBox="0 0 512 512"><path d="M233 1c-22 2-43 7-62 13-19 7-53 25-62 33l-3 2h150l149-1-26-17A260 260 0 0 0 233 1zM65 86l-20 25 112 1 119 1c24 4 42 25 42 49s-16 44-39 50l-141 1-134 1-3 26v7h94c91 1 94 1 102 3 13 3 19 5 62 23 52 23 52 23 64 25 9 2 13 2 97 2 83 0 88 0 88-2l3-25 1-6h-60l-65-1c-24-4-42-29-38-53 3-19 17-34 35-38 5-2 16-2 60-2h54a253 253 0 0 0-51-87l-6-7H71l-6 7z"/><path d="m23 151-12 31 130 1h131l5-3c8-4 11-8 11-18 0-6-1-7-3-11l-7-6-4-3H27l-4 9zm366 53c-8 4-13 14-9 21 2 6 4 8 9 10 3 2 7 2 63 2h59v-7l-3-17-1-10h-58l-61 1zM2 283l2 16 2 11h90c100 1 94 0 106 8 15 10 22 23 21 42 0 9-1 11-4 17-7 13-20 24-33 26l-72 1-66 1 21 26 7 7h360l7-7a243 243 0 0 0 57-100l-84-1c-93 0-94 0-113-6a1179 1179 0 0 1-102-42c-15-5-16-5-111-5H1l1 6zm305 83v15h-30v-30h30v15zm84 31v15h-30v-14l1-15 15-1h14v15z"/><path d="M15 341c0 2 6 17 11 26l3 7h77c76 0 77 0 80-3 5-3 7-8 7-13 0-7-2-12-7-15l-4-3H98l-83 1zm105 132a284 284 0 0 0 99 37 263 263 0 0 0 175-37l6-5H113l7 5z"/></svg>