<svg version="1.0" xmlns="http://www.w3.org/2000/svg" fill="white" stroke="white" viewBox="0 0 512 512"><path d="M208 26A231 231 0 0 0 11 325l3 12h5c22 0 43-15 52-38l2-26c1-24 2-32 9-45 11-24 31-40 56-46 7-2 13-2 43-3 35-1 39-1 57-7 47-15 85-57 95-107 3-16 4-15-9-21a239 239 0 0 0-116-18z"/><path d="M362 75a179 179 0 0 1-114 125c-21 7-27 8-65 9-32 1-35 1-41 3-13 4-23 12-30 23s-8 16-9 41c0 15-1 23-2 27-9 32-35 56-67 62l-6 2 5 8a230 230 0 0 0 187 111l12 1v-40l1-39 2-8c6-18 15-27 35-40 15-9 19-13 23-21l3-6v-37c1-40 1-41 8-54 6-13 22-26 36-31a1327 1327 0 0 1 112-21c1-1-4-13-9-26a229 229 0 0 0-79-97l-2 8zM206 248c13 2 26 12 32 24a47 47 0 1 1-32-24z"/><path d="M191 278c-5 2-10 8-11 12-1 11 7 21 17 21 9 0 17-8 17-17 0-12-13-20-23-16zm214-49c-46 8-54 9-60 12-7 3-12 9-16 17l-3 5v37c-1 36-1 37-3 45-6 16-15 26-34 39-15 9-20 13-24 21l-3 6v74h4a243 243 0 0 0 80-28l-3-8c-8-26-6-64 7-108 5-16 9-24 14-28 8-7 19-10 29-6l6 2 2-3 11-30c7-17 28-24 44-14l6 3a163 163 0 0 0-4-46l-54 10z"/><path d="M440 288c-11 31-20 49-27 53-4 3-10 2-21-2l-8-4-1 3c-3 7-8 27-10 37-9 44-5 69 14 90l5 6 2-7c1-9 5-18 11-27 6-8 23-25 28-28 9-4 14-2 28 12 15 15 23 28 25 43l2 7 5-6c14-16 20-33 19-57-2-32-15-61-38-90-12-14-33-33-34-30z"/><path d="M434 448c-6 8-11 17-11 22 0 6 4 13 11 16 10 4 22-3 23-15 0-3 0-5-3-10-3-6-12-18-14-19l-6 6z"/></svg>