<svg version="1.0" xmlns="http://www.w3.org/2000/svg" fill="white" stroke="white" viewBox="0 0 512 512"><path d="M213 54a203 203 0 0 0-123 50l-2 3h28c27 0 29 0 34 2 17 6 25 26 18 42-4 8-8 12-16 16-5 3-7 3-17 4-12 0-14 1-17 7v7c2 6 2 6 44 7 37 0 39 1 43 3 7 3 11 7 15 14 3 6 3 7 3 15 0 7 0 9-2 14-4 7-7 10-14 14l-6 3-44 1c-47 0-46 0-49 6-2 4-1 9 1 12l3 2 17 1c15 1 17 1 23 3 16 8 23 27 16 42-4 8-11 14-18 17-5 2-7 2-57 2l-52 1a198 198 0 0 0 96 96c54 27 117 27 172 1l9-4-3-4-5-10-2-5H183l-6-4c-7-4-11-8-14-15s-3-20 0-26c3-7 9-13 15-16l5-2 54-1c43 0 55-1 57-2 3-2 5-7 4-12-2-6-2-6-32-7-27 0-28 0-33-3-8-4-13-9-17-16-7-16 0-34 16-42 4-3 5-3 51-3l48-1v-21h-26c-25-1-27-1-31-3-6-3-12-9-15-15-2-5-2-7-2-14 0-9 2-15 8-21 8-9 15-11 35-11l14-1c6-3 7-12 2-17l-2-3h-49l-50-1-6-3c-7-4-11-8-14-15s-3-20 0-27c3-6 9-12 15-15l5-3h117l1-5 1-5-10-6a200 200 0 0 0-112-26z"/><path d="M397 54c-19 3-35 16-42 36l-2 5-1 106v105l-8 9a80 80 0 0 0-23 44c-3 17 0 34 7 50a85 85 0 1 0 138-96l-7-7V202c0-98-1-105-2-110a54 54 0 0 0-60-38zm16 45 3 3v230l3 1c13 5 22 15 27 28l1 15c0 8-1 10-4 16a41 41 0 0 1-68 11 43 43 0 0 1 18-70c2-1 2-7 2-115l1-116c3-6 12-8 17-3z"/><path d="m398 353-7 5c-7 7-9 16-4 25 6 13 24 16 34 4 14-16-1-40-23-34zM219 119c-3 1-6 6-6 9l5 9c2 1 10 2 51 2h50l5 3 6 4 1-14v-15h-54c-48 0-55 0-58 2zM61 137a200 200 0 0 0-31 177l2 6h55c49 0 55 0 57-2 6-3 7-11 3-16l-3-2-17-1c-15 0-17-1-22-3-13-6-19-16-19-30 0-6 0-8 3-14 2-5 5-7 8-10 9-7 10-7 55-7 46 0 46 0 49-6 2-5 2-5 0-9-2-6-2-6-44-7-38 0-39 0-43-3-6-3-12-9-15-15-2-5-3-7-3-13 0-10 3-16 9-22 7-8 15-11 30-11 8 0 8 0 11-3s4-8 2-12c-3-6-4-6-44-6H67l-6 9zm267 59-6 4c-5 2-8 2-21 3-18 0-20 1-23 7-2 4 0 9 4 12 3 2 6 2 26 2h23v-15l-1-14-2 1zm-88 94c-5 3-7 11-3 16l3 2 27 1c31 1 34 1 41 8l4 4 5-7 9-12c4-5 5-6 5-10v-4h-44c-40 0-45 0-47 2zm2 83c-59 1-56 0-60 7-2 6 2 13 8 15a1690 1690 0 0 0 110-2l-1-11c0-8-1-10-2-10l-55 1z"/></svg>