<svg xmlns="http://www.w3.org/2000/svg" viewBox="0 0 512 512" fill="white" stroke="white"><path d="m258 63 5 3c1 13-1 27-1 41a96327 96327 0 0 0-5 71v3c-1 5-1 9-4 14-3 2-4 3-8 3-7-1-11-6-16-11l-6-5a178 178 0 0 1-17-16 178 178 0 0 1-17-16l-11-11-8-7-8-8-6-5-11-11-10-9 7 11 1 2 4 7 2 2a1241 1241 0 0 0 50 73 7328 7328 0 0 0 10 16l1 2c9 12 9 12 8 19-2 3-3 5-7 7l-28 4a17990 17990 0 0 0-21 2l-16 2-30 4 31 5 12 2a3802 3802 0 0 0 42 7c4 1 8 3 10 7v10l-7 7a4748 4748 0 0 0-28 32l-11 12a1204 1204 0 0 0-58 64l-15 15-6 8-3 3-2 2-4 4-1 1a69195 69195 0 0 1-59 63l-1 2-2 2-5 1c-3 0-4 0-6-2l-1-7 3-4 2-2 3-2a1606 1606 0 0 0 56-60l6-6 2-3 7-8a34335 34335 0 0 0 25-26l9-11a1136 1136 0 0 0 47-52 422 422 0 0 1 28-31l2-1 3-4-17-3h-3l-33-6-4-1a4790 4790 0 0 0-22-3l-3-1h-3l-2-1-6-2-1-8 2-4-2-3 1-6c4-3 9-4 14-4l3-1a1663 1663 0 0 1 32-4l17-2 33-4c0-4-3-6-5-9l-1-2-5-7a11027 11027 0 0 1-24-36l-7-10-2-3a39291 39291 0 0 0-46-67l-2-3V78c3-2 3-2 7-2l6 3 2-2 5-1a20318 20318 0 0 0 14 11l2 2 10 10a8835 8835 0 0 1 87 81 1078 1078 0 0 0 4-50v-3a53484 53484 0 0 1 3-53c0-4 1-6 3-9l6-2Z"/><path d="m368 139 2 1c0 5-2 7-5 11l-9 10a552 552 0 0 1-32 38l-13 15c-5 5-5 5-7 11h3a4805 4805 0 0 1 28 3v5l-26 11v3a97 97 0 0 0 8 7 1271 1271 0 0 0 18 15l-1 5a69 69 0 0 1-17-4 6488 6488 0 0 1-12-4l-3-1-5-1 7 26 1 4 1 3v7h-5l-5-5-2-2a586 586 0 0 1-16-16h-2a6709 6709 0 0 0-6 31l-1 3-1 6v5l-3 5-5-1-5-54c-8 0-16 11-22 16l-9 8-12 11a254 254 0 0 1-24 21 248 248 0 0 1-20 17l-1 1-5 4-4 2-3-3 2-4 2-3 2-2 3-3 8-8a2838 2838 0 0 1 18-19l1-2a101011 101011 0 0 0 47-50l-1-2-6-1-3-1-8-1-3-1h-3l-4-3-1-2c3-3 5-4 9-5h3l4-1 7-2h3l5-3-21-31-2-3-2-3-2-3-2-3-2-6 1-2c5 0 8 2 12 5a799 799 0 0 0 5 5l11 7 17 13 4 1 4-31 1-3a1348 1348 0 0 0 2-19v-2l1-6 4-2c3 2 4 4 4 8l1 3v4l1 3 2 11a9025 9025 0 0 0 5 24v4l11-9 12-11 9-9 8-7 8-8 8-7 6-6a157 157 0 0 1 14-13l2-2 2-2 4-1Z"/><path d="m332 281 9 5 3 2a1852 1852 0 0 1 28 16l15 9a34008 34008 0 0 1 64 38l-1 8c-3 2-6 2-9 1l-11-6-4-2a1494 1494 0 0 1-51-29 1076 1076 0 0 1-45-26 614 614 0 0 0 16 52l1 4 1 3v2c1 4 2 8 0 11-3 2-6 1-9 1l-2-2-1 2c-1 3-1 3-4 5l-6-1-14-19a74127 74127 0 0 0-6-9l-10-15-4-6-2-2-1-2-2 6v9a4288 4288 0 0 0-9 79v3l-3 12-6 2c-4-1-4-2-6-5v-7l1-2v-7a2915 2915 0 0 0 2-17l3-23 2-18a10671 10671 0 0 0 3-33v-4c1-4 2-9 5-12s5-3 9-3c5 2 8 5 11 9l1 2 4 6a2564 2564 0 0 0 9 14l20 28-2-9-1-4-1-2a1483 1483 0 0 1-11-38c-6-16-6-16-3-23 4-6 11-6 17-3Zm3 82 1 2Zm-92-66c3 2 4 2 6 5 3 13 3 26 4 39a116992 116992 0 0 0 7 92l-4 3-6-1c-2-4-3-6-3-10v-2l-3-27a7030 7030 0 0 0-6-71l-1-3v-2l-1-6-1 1-24 22a793 793 0 0 0-35 32 1791 1791 0 0 1-70 64l-14 13a4562 4562 0 0 0-60 55l-3 3-2 2-8 1c-3-2-4-3-5-6a947 947 0 0 0 20-21l10-10a863 863 0 0 1 51-46 1791 1791 0 0 1 35-32l14-13a4562 4562 0 0 0 64-59l2-1a2104 2104 0 0 0 17-16l2-2c5-4 8-5 14-4ZM492 7l4 2c1 7 1 7-2 11l-3 2-2 2-5 4-3 2-5 5-13 11a427 427 0 0 1-18 16l-2 1a418 418 0 0 0-21 19 247 247 0 0 0-24 21l-13 12a249 249 0 0 1-24 21l-15 13-11 10-10 8a239 239 0 0 0-19 17c-3 2-5 3-9 3l-2 1c-4-1-6-3-8-6l-2-10-1-2a728 728 0 0 1-2-17l-3-13v-2a18996 18996 0 0 1-10-54v-3c-2-13-2-13 1-18h8c4 4 4 8 5 13v3a1794 1794 0 0 1 13 76l1 3 1 13 16-13 8-7 15-13a227 227 0 0 1 23-20l14-13 11-10 10-8 13-11a249 249 0 0 1 25-22 280 280 0 0 0 28-24l19-18c6-5 6-5 12-5Z"/><path d="m507 12 3 3c1 4 0 6-2 10a134 134 0 0 1-7 7l-1 1-8 8a2634 2634 0 0 1-28 31l-13 14-8 9-3 3-1 1-67 72a21944 21944 0 0 0-27 30 704 704 0 0 0 81-2h7c3 0 3 0 5 2s2 2 2 6c-1 3-1 3-4 5l-7 1a132136290 132136290 0 0 1-22 1h-4a6734 6734 0 0 1-44 1h-18c-7 0-7 0-11-2-3-3-3-6-3-10 1-6 6-10 10-14l8-9 9-10a1572 1572 0 0 0 25-26l1-2 3-3 8-8 3-4 2-1 16-18 1-2a44507 44507 0 0 1 42-45l13-14 5-5 2-2 2-3 8-8 2-2a1916 1916 0 0 1 10-11c3-4 5-4 10-4Zm-66 202c2 3 2 5 2 9-2 3-5 4-8 5l-4 1-4 1a3696 3696 0 0 0-16 4l-2 1-29 7-10 3-21 5a111 111 0 0 0 15 13l2 2 9 7a24081 24081 0 0 0 67 52l2 1a1304 1304 0 0 1 11 9c6 4 6 4 7 8l-2 6-6 2c-4-1-7-4-10-6a1868 1868 0 0 0-6-5l-10-8a645 645 0 0 1-35-28l-15-12-9-6-3-3-2-2-5-4a176377923 176377923 0 0 0-15-11l-2-1-3-3c-4-3-6-5-8-9 0-4-1-6 2-10 3-3 5-3 9-4a116110634 116110634 0 0 0 85-23l2-1h12ZM228 343c2 2 3 3 3 6 0 4-1 5-4 8l-2 2a879 879 0 0 1-32 34l-12 12-5 6-12 12-5 6-9 10-2 2c-4 3-6 2-10 2l-3-3c0-4 0-5 2-8l2-3 2-2 3-3 2-2a1219 1219 0 0 1 28-29l11-12 6-6 11-12 6-6 8-9 2-3c4-3 6-2 10-2Zm127 79c4 1 4 1 5 3l4 6c3 6 7 8 13 11 3 2 3 2 4 5 0 3 0 3-2 5l-7 5c-6 3-9 9-12 15l-4 2c-4-1-4-1-5-3l-4-6c-3-6-8-8-13-12l-4-2v-6l12-8c4-3 6-6 8-11 1-3 1-3 5-4Zm-230-96 5 1c2 3 1 5 1 9l-7 8-2 2-6 6-3 3a696 696 0 0 1-27 29l-10 10-5 6-4 3c-4 0-6 0-9-2v-8l5-5 5-6 9-9 8-9 11-11 9-10 12-12 3-3c2-2 2-2 5-2ZM368 73l5 1c2 3 1 5 1 9l-7 8-2 2-6 6-10 11a189 189 0 0 1-19 19l-1 2-4 4c-2 3-4 4-8 5l-5-2c-2-3-2-5-1-8l7-8 2-2a986 986 0 0 1 27-28l13-14 3-3c2-2 2-2 5-2Z"/><path d="m444 123 3 4c0 5-1 7-5 10l-4 4-2 3a295 295 0 0 1-20 18c-5 5-5 5-9 5l-5-1c-2-3-1-5-1-9l6-6 2-2 11-10 11-11c4-4 6-6 13-5ZM66 89c5 1 5 1 6 3l3 7 2 1 7 3v6l-7 4-7 10-5-1-2-4c-3-5-7-7-12-10l1-5 4-2c5-3 7-7 10-12Zm345 292h5l3 4c3 5 6 7 11 10l-1 5-4 3c-5 3-7 5-9 10h-5l-4-9-2-1-3-1-2-1-3-3 2-4 5-4c4-3 5-5 7-9Zm-184 51c6 3 6 3 7 6 1 7 1 7-2 11-3 3-3 3-7 3s-6-1-9-3c-2-4-2-8-1-12 3-5 6-6 12-5ZM52 406l4 5c0 6-4 9-8 13l-5 3c-5-1-5-1-7-3v-8c4-5 9-11 16-10Z"/><path d="m460 110 2 6c-2 5-5 7-9 10-3 1-5 1-8-1-2-3-2-5-1-9 5-6 8-9 16-6ZM91 174l4 4-1 9c-3 3-5 3-9 3-3-1-5-2-6-5l1-9c4-3 6-3 11-2ZM322 36l4 4v8c-2 3-2 3-5 4-4 0-6 0-9-2l-2-6 2-7c3-2 7-1 10-1Z"/></svg>