<svg xmlns="http://www.w3.org/2000/svg" viewBox="0 0 512 512" fill="white" stroke="white"><path d="M255 73h2a1090832 1090832 0 0 1 31 74l1 3 2 7 26-18 2-2 13-9 3-2a1999 1999 0 0 0 19-12l3 4 2 3 4 6a353 353 0 0 1-26 19l-3 2-13 9-3 2a3732 3732 0 0 0-23 16l-2 1-9 6-8-18-1-3a3050 3050 0 0 1-16-39l-1-2-2-3-29 72c-5-2-9-3-13-6l-4-3-3-1-13-9a4071 4071 0 0 1-58-35 436 436 0 0 0 31 49l1 2 8 11 1 3a7111 7111 0 0 1 10 14l1 2 3 4 3 7a2190 2190 0 0 1-91 29l80 27c0 4 0 5-2 8l-2 2-2 3-2 2a563 563 0 0 1-24 34 709 709 0 0 1-35 50 1378 1378 0 0 0-30 41l-1 2-2 2-3 6 1-1 61-42a43 43 0 0 1 9 11l1 2-32 23-15 10-3 2a7459 7459 0 0 0-76 54l-2 1a455 455 0 0 0-10 7l-3-1 2-3a563 563 0 0 0 40-55 1472 1472 0 0 1 51-72 424 424 0 0 1 25-34l13-20 16-22-77-26-2-1-29-9v-2l28-9 2-1 87-27c0-4-1-5-3-8l-2-3-2-3-4-6-2-3a1177 1177 0 0 1-10-16l-2-2-6-10-2-2a8829 8829 0 0 0-42-66l-2-2a835 835 0 0 0-4-6l-1-2-2-6 23 13a2172 2172 0 0 0 83 51l16 10 13 8 24-60 5-11 8-21Z"/><path d="m499 12 2 1-1 1a912 912 0 0 0-43 62 430 430 0 0 1-26 35 709 709 0 0 1-35 50 1257 1257 0 0 0-34 47l-2 3-6 8 77 26 2 1 28 9v2l-4 1a7643 7643 0 0 0-109 39l13 22a534 534 0 0 1 29 46 2952 2952 0 0 1 24 39l2 3a29134 29134 0 0 0 6 9l2 3 1 2 2 3 1 4a55 55 0 0 1-12-6l-3-2-7-4-3-2a2824 2824 0 0 0-110-65l-4 11-1 3a3517 3517 0 0 1-27 66l-1 2-4 8-13-29a16115 16115 0 0 0-22-53c-4 0-6 2-10 5l-4 3-2 1-12 9a763 763 0 0 0-19 13l-3 2-2 2-7 3-4-5-2-3-2-6 3-3 3-1 2-2 6-3 2-2a705 705 0 0 0 18-12l2-2 8-6 3-2a3968 3968 0 0 1 16-11l2-1a854 854 0 0 0 7-5c3 1 3 1 5 4l2 5 1 3a1459 1459 0 0 1 18 42l1 3 2 8h2v-2a228 228 0 0 1 14-35 3322 3322 0 0 0 13-33l3-3 4 2 2 1 3 2 2 2a2273 2273 0 0 1 79 48l-4-8-2-3a13198 13198 0 0 0-45-72l-2-3-1-4 60-22h2l25-9-11-5h-2a3111 3111 0 0 0-26-9l-14-5-28-9c0-4 0-5 2-8l2-2 2-2 3-5 2-3a567 567 0 0 0 34-47 1388 1388 0 0 1 53-75l6-8a2498 2498 0 0 0-48 33l-2 2c-5 3-5 3-8 3l-4-6-1-2-3-4 11-9 4-3 2-1 14-10 3-2 27-18 15-11a26897 26897 0 0 0 39-28l3-2 14-9Z"/><path d="M271 196h2l6 37 38 6v2a124 124 0 0 1-10 8l-2 1-10 9-2 1-5 4a198 198 0 0 0 11 30l1 3 1 4-15-6-4-1a889 889 0 0 1-10-4l-3-1h-5l-7 7-2 2-7 10-1 2a389 389 0 0 0-6 7h-2l-6-38-37-6c2-4 5-6 8-9l4-3 2-2 9-7 3-2 2-2c-2-9-6-17-9-25l-1-3-1-3-1-5 12 4a4035 4035 0 0 0 15 6l4 1h5l5-4 2-2 1-2 2-3 8-9 2-3 2-2 1-2Zm-10 38-7 9-14-3 1 2 1 3v10l-4 3-4 3v2l13 2 3 13 2-2 5-5 1-3 2 1 3 1 3 1 6 1-4-14 2-1 5-4 3-2-1-2-6-1-3-1h-3v-3l-1-3v-3l-1-3-2-1ZM56 123l6 9 2 3a9974 9974 0 0 1 6 11l1 3 4 6 1 4 2 1 9 4 3 2 2 1a2256 2256 0 0 0 20 11c-1 4-3 4-6 6l-4 2a3522 3522 0 0 1-17 9l-3 1c-7 5-10 12-14 19a1374 1374 0 0 1-11 20h-2l-1-2a20963 20963 0 0 0-10-19l-2-4-2-3-1-2c-2-5-5-7-9-9l-2-1a491 491 0 0 0-28-15l10-7 3-2a5116 5116 0 0 1 11-6l3-1c6-4 10-6 13-13l1-1a616 616 0 0 0 15-27Zm0 33-3 5c-5 9-9 13-19 17 1 3 1 3 4 4l3 2c8 4 11 10 15 18 3-3 5-6 6-10 4-6 10-9 17-12v-2a1661 1661 0 0 0-8-5l-7-2-1-2c-1-5-4-9-6-13h-1Zm399 121h2l1 2a20963 20963 0 0 0 10 19l2 4 2 3 1 2c2 5 5 7 9 9a183289164 183289164 0 0 1 30 16l-10 7-3 2a5116 5116 0 0 1-11 6l-3 1a27 27 0 0 0-14 14 616 616 0 0 0-15 27l-6-9-2-3a9974 9974 0 0 1-6-11l-1-3-4-6-1-4-2-1-9-4-3-2-2-1a2256 2256 0 0 0-20-11c1-4 3-4 7-6l3-2a7427 7427 0 0 1 21-11l5-2 1-3 5-10 1-2a1288 1288 0 0 1 8-16l4-5Zm0 33-1 3c-5 10-11 14-21 19l9 7 2 1 4 1 1 2c1 5 4 9 6 13l6-9c4-7 9-10 17-13-1-3-1-3-4-4l-3-2c-8-4-11-10-15-18h-1ZM177 0c4 2 6 4 8 8l1 2a766 766 0 0 1 8 17l2 3 1 3 7 5 3 2 3 1a5751 5751 0 0 1 25 14c-2 3-5 4-8 6l-3 2-4 1-9 5-6 3c-7 3-10 9-13 17l-4 7-1 3-8 13c-3-2-4-5-6-8l-2-3-1-4-5-9-3-6c-4-7-10-10-18-14a1552 1552 0 0 1-22-12l11-7 3-2a9918 9918 0 0 1 11-6l3-1 3-2 3-1 5-7 2-3 1-3 4-7 1-3 8-14Zm1 32-1 3c-5 11-11 15-22 20 3 3 6 5 10 6a655 655 0 0 0 14 18c2-4 7-10 7-15l2-1 9-4 3-2 2-1-7-4c-9-4-12-11-16-20h-1Zm155 368c3 2 4 5 6 8l2 3a1299064346 1299064346 0 0 1 9 19c3 6 7 8 13 11l5 2 2 2 13 7 2 1 5 3-11 7-3 2a9918 9918 0 0 1-11 6l-3 1-3 2-3 1c-3 2-4 4-5 8l-2 3a5580 5580 0 0 0-6 11l-1 3-7 12c-4-2-6-4-8-8l-1-2a766 766 0 0 1-8-17l-2-3-1-3-8-6-2-1a719 719 0 0 0-28-15c2-3 5-4 8-6l3-2 4-1 9-5 6-3c7-3 10-9 13-17l4-7 1-3 8-13Zm0 33-3 6-2 2-2 7-2 1-9 4-3 2-2 1 7 4c9 4 12 11 16 20l4-7c4-9 11-12 20-16l-9-6c-5-3-7-6-10-11l-2-4-2-3h-1Z"/></svg>