<svg xmlns="http://www.w3.org/2000/svg" viewBox="0 0 512 512" fill="white" stroke="white"><path d="m288 149 4 1c23 8 41 22 56 42 6 8 13 15 22 20l2 1c5 3 10 4 15 5h2a557 557 0 0 0 66 12 4859 4859 0 0 1 33 5h3c7 2 13 4 18 9 4 6 4 11 3 18-2 5-5 8-9 11l-21 5h-3a2655 2655 0 0 1-72 12c-27 5-46 11-63 34a108 108 0 0 1-60 40 109 109 0 0 1-64-2c-22-8-41-22-55-41a71 71 0 0 0-54-30 1952 1952 0 0 0-86-14h-3c-7-2-14-3-19-9-4-6-4-11-3-18 2-5 5-8 9-11l21-5h3a2655 2655 0 0 1 72-12c24-4 44-9 60-30l2-3a112 112 0 0 1 121-40Zm-95 38-2 2-13 15c-8 12-18 19-31 26l-2 1c-6 3-11 4-17 5h-3a957 957 0 0 1-90 16h-5l-3 1-9 2v2a8736 8736 0 0 0 56 10l14 2a3966 3966 0 0 0 52 10c18 6 31 18 42 34 15 19 35 31 59 36h18c23 0 43-9 60-24l2-2 14-17c5-7 11-13 19-18l2-1c17-10 36-13 56-16a12571 12571 0 0 0 24-4l29-5a10065 10065 0 0 1 18-3h3l2-1 6-1v-2a1202 1202 0 0 0-93-16c-30-5-52-14-70-39a97 97 0 0 0-60-37c-29-3-56 5-78 24Z"/><path d="M295 209c11 10 19 23 21 38 1 19-2 35-15 50a60 60 0 0 1-40 19c-19 1-35-4-49-17a66 66 0 0 1-16-50c1-15 9-28 20-39 7-6 14-9 22-12l2-1c19-5 39 1 55 12Zm-71 20c-7 8-11 19-10 30 1 12 6 23 16 30 11 8 22 11 35 8s22-10 28-21c6-10 7-21 4-33-4-11-12-19-22-25-18-9-38-4-51 11Zm-83 85c4 3 7 7 9 12l14 17 2 3 3 2 2 2a128 128 0 0 0 174-4c4-4 6-5 11-5l6 2 3 6c-1 6-4 8-8 12l-1 2c-24 26-62 37-96 39a147 147 0 0 1-103-38c-11-10-26-25-30-40 0-4 1-6 3-8 4-3 6-3 11-2Zm182-188c27 14 54 38 65 68 0 4 0 6-3 9-2 2-5 3-8 2-4 0-5-2-7-5l-4-8a126 126 0 0 0-105-63c-10-1-10-1-13-4-1-4-2-6-1-9 14-17 60 2 76 10ZM124 57c7 6 11 14 13 23 1 9 0 18-6 25-6 8-14 14-24 15s-19-2-28-8a38 38 0 0 1-9-13c-4-7-3-17-1-24 4-11 10-17 19-22 12-5 25-2 36 4ZM89 76c-3 4-4 9-3 14 2 5 4 8 9 11 5 2 9 2 14 0 5-3 8-7 10-12 1-6 0-10-4-15-4-3-7-5-13-6-5 1-9 3-13 8Zm131 44c2 2 3 5 3 8-1 3-3 5-6 7l-9 4c-13 5-24 12-35 21l-2 2c-10 8-18 19-24 29-2 4-4 5-7 6-4 0-6-1-9-3-3-4-2-6-2-10l4-7 1-2 12-15 2-2c15-17 34-30 55-38l2-1c5-2 10-3 15 1Zm231 294c6 5 10 10 10 18 1 9-1 15-7 22-6 6-13 8-22 7-7 0-12-3-17-9-4-6-7-11-6-19 1-7 3-14 9-19 11-7 22-6 33 0Zm-22 16c-2 3-2 5-1 9l4 4h6c3-2 5-4 6-8-1-4-2-5-5-7-4-2-7-1-10 2Zm-319-71c5 3 8 7 10 12 1 6 0 10-3 15-4 4-8 7-14 7-5 0-9-1-13-4-4-5-5-9-5-16 0-5 3-9 7-12 6-4 12-4 18-2Zm278-60 4 6c0 6-2 10-5 15l-1 2c-9 17-9 17-15 20-4 0-6 0-9-3-2-4-2-6-2-10l4-7 10-19c4-6 8-6 14-4Zm-252 93h18v18h-18v-18ZM324 85h18v18h-18V85Zm-34-17h18v18h-18V68Zm51-17h18v18h-18V51Z"/></svg>