<svg xmlns="http://www.w3.org/2000/svg" viewBox="0 0 512 512" fill="white" stroke="white"><path d="m318 117 2 1c10 4 18 10 27 16l2 2c14 10 26 22 37 35l13 14 2 2c12 13 30 19 46 24a1035 1035 0 0 1 36 12l3 1c8 3 14 7 20 13l1 2c6 8 6 16 5 25-2 7-7 13-13 18a105 105 0 0 1-23 9l-9 3c-38 12-38 12-69 34l-2 2-10 11c-9 10-18 20-29 29l-2 1a151 151 0 0 1-54 30c-39 13-81 8-117-11a140 140 0 0 1-38-28l-20-21-14-15-2-3c-18-17-45-23-68-30a26210 26210 0 0 1-13-4c-9-3-16-7-23-14l-1-2c-6-8-6-16-5-25 2-7 7-13 13-18 7-4 13-6 20-8l3-1 9-3c38-12 63-25 89-55 6-8 14-15 22-22l2-2c44-36 108-46 160-22Zm-154 46-6 5-12 12-2 3-11 12c-24 27-58 36-91 46l-3 1-5 2c-5 1-8 3-12 7l-1 8c6 11 24 13 35 16 51 17 51 17 67 32l4 2 1 2 5 6 7 8c29 32 60 57 105 62a135 135 0 0 0 109-43l11-12 2-2a1644 1644 0 0 0 7-8l10-10c18-23 53-30 79-39a2340 2340 0 0 0 12-3c6-2 13-5 16-11 1-4 0-6-2-9-3-3-6-5-10-6l-2-1-7-2-2-1-14-4c-49-15-49-15-65-32l-4-1-1-2-5-6-7-8c-28-32-61-58-105-62-37-2-77 11-103 38Z"/><path d="M317 185c17 15 30 37 32 61 1 27-5 51-24 72a94 94 0 0 1-64 31h-2c-26 1-50-9-69-26a94 94 0 0 1 2-135c35-32 89-33 125-3Zm-117 25a76 76 0 0 0-16 57c4 20 15 37 32 49 17 11 38 14 58 10 18-5 34-17 44-33 10-18 13-38 7-58a73 73 0 0 0-125-25Z"/><path d="M255 36h3c61 0 116 25 159 69 14 14 34 36 38 57-1 4-3 6-6 9h-11l-4-6-2-2-4-6c-7-13-15-24-26-35l-4-7-4-2-3-3c-28-29-70-45-109-51h-2a199 199 0 0 0-183 77c-2 3-3 4-6 5-7 1-7 1-11-2-3-3-3-4-4-7 1-12 17-25 25-33l2-2c33-34 79-54 125-60h2l25-1Zm201 297c2 4 3 6 3 10a158 158 0 0 1-45 67 217 217 0 0 1-152 66h-3c-4 0-6 0-10-2-3-3-3-5-4-9 1-4 2-6 5-9l9-2h7c48-3 93-22 128-55l2-1c8-8 15-16 21-25l1-2c7-9 12-18 17-28l1-3 2-3c1-3 4-5 7-7 4 0 7 0 11 3ZM495 9c8 6 15 14 17 25 2 14 0 26-9 38-7 8-16 13-26 15-15 1-26-1-38-11-9-8-13-18-14-30s3-23 11-32c16-17 41-19 59-5Zm-44 20c-4 6-6 11-5 18 2 8 5 13 12 17 6 3 12 3 19 1 6-3 10-6 13-12 2-6 2-13 0-18-3-6-8-11-14-13-10-2-18 0-25 7ZM66 431c10 6 17 15 20 26 3 12 1 24-5 35-8 11-17 17-29 20a45 45 0 0 1-52-34c-1-14 0-25 8-37 15-17 39-21 58-10Zm-42 24c-4 6-4 13-3 20 2 6 7 10 12 14 6 3 12 3 18 1 7-3 11-7 14-14 2-6 1-13-2-19-3-5-8-9-14-11-10-1-18 1-25 9Zm48-107 3-1c4 2 7 6 10 10l2 4a208 208 0 0 0 30 37c16 17 37 30 58 39 6 3 9 4 12 10 1 5 0 6-2 10-4 3-6 4-11 4l-8-3-3-1c-40-20-74-50-97-88l-1-2c-3-5-4-7-3-13 3-5 5-6 10-6Z"/></svg>