<svg version="1.0" xmlns="http://www.w3.org/2000/svg" fill="white" stroke="white" viewBox="0 0 512 512"><path d="m239 42-11 1a199 199 0 0 0-81 31l17 5c12 4 25 5 35 3 14-2 31 2 38 11 7 7 9 11 9 22 0 8-1 10-3 15-6 12-21 20-50 26-18 4-20 6-10 16 4 5 7 7 16 8 16 4 24 9 28 18l8 11c18 18 20 40 4 51l-9 8c-3 3-4 4-4 7 0 5 2 11 5 15 3 3 3 6-1 17-4 12-8 20-12 24-3 2-4 3-8 3-10 0-13-5-25-36-12-30-16-35-28-41-10-4-15-9-18-16-1-5-1-11 1-22v-11l-9-6c-22-12-37-28-47-47l-3-8-6 11a195 195 0 0 0 32 213l6 6-14 7c-27 13-31 13-57 0-15-8-22-11-31-12-5 0-6 0-8 2-6 6-2 12 7 13 5 1 11 3 25 10 33 16 37 16 68 1 20-10 26-12 34-10l23 9c32 16 37 16 67 1 28-14 30-14 57 0 31 15 36 15 69-1 27-13 29-13 58 2 28 14 34 14 65-1 18-9 23-11 29-11l5-2c4-5 1-13-6-13-9 0-16 3-38 14-21 11-28 11-54-4l-11-5-3-1 5-6 20-25 2-3-4-6c-5-7-9-11-19-16-14-7-16-7-30-4-17 4-21 4-26 3-12-3-15-12-11-32 2-11 7-20 12-28 5-6 17-14 27-18l8-4-2-9c-5-24 8-40 44-53l13-4 4-1-2-5-6-14A198 198 0 0 0 239 42zm59 294c13 5 27 17 37 31 5 7 10 18 9 18l-6 3-6 3-5-9c-7-13-21-26-30-31-25-12-53-1-72 28l-7 8-16 6 4-9c14-26 32-43 54-49 8-3 30-2 38 1z"/><path d="m117 98-21 23-6 8 3 7c8 23 24 42 47 54 15 9 17 12 15 28-4 19-3 21 10 27 15 7 21 16 36 53l9 19 4-10 4-9-3-6c-3-8-4-20-2-26 2-5 7-10 12-14 10-6 13-11 10-19-3-5-7-11-14-16-5-5-8-8-8-12 0-5-6-8-19-10-8-2-15-5-21-12-11-12-13-24-4-32 4-4 8-5 16-7 22-5 42-13 45-18 2-5 2-16 0-20-4-7-19-12-30-9-16 3-38-1-62-11l-6-2-15 14zm314 90c-16 5-23 9-29 14-9 7-10 12-7 27 3 14 0 19-12 24-17 6-23 11-28 21-4 8-8 21-8 27 0 2 1 3 2 3 2 1 10 0 21-3 13-3 22-2 36 5 11 5 25 17 25 20 0 5 8-11 13-27 8-25 11-54 8-81-2-15-6-35-8-35l-13 5zM2 436c-5 6-1 11 8 12l25 10c21 11 28 14 38 13 8-1 16-4 34-14 15-8 21-10 28-9l23 10 26 12c13 3 24 0 40-8 30-17 34-18 58-4 32 18 42 17 75-1 11-7 20-10 27-9l18 8c19 10 23 12 30 14 14 3 25 0 49-13 10-6 18-9 23-9 4 0 8-4 8-7l-3-4c-5-6-15-3-39 9-19 9-23 11-31 10-6-1-9-2-28-11-28-15-34-15-66 1-27 13-29 13-58-1-28-15-34-15-67 1-18 9-19 10-26 10s-8-1-27-10c-33-16-37-16-70 0-27 13-29 13-58-1-20-11-32-13-37-9z"/></svg>