<svg version="1.0" xmlns="http://www.w3.org/2000/svg" fill="white" stroke="white" viewBox="0 0 512 512"><path d="m400 44-20 26-17 26-11-7c-12-8-34-19-47-24-11-4-27-8-40-10a214 214 0 1 0 183 213v-21l5-4c12-9 21-19 26-32 6-12 7-19 7-34s-1-22-7-34c-3-8-63-95-68-98-2-2-7-3-11-1zm33 67 26 40a60 60 0 0 1-97 68 59 59 0 0 1-12-67 738 738 0 0 1 57-78l26 37zM262 77l2 2a1013 1013 0 0 1-10 66c0 6 2 9 11 23 11 17 13 21 14 33 1 13 3 20 9 28 7 12 9 17 10 28 0 12-1 18-8 30-10 19-19 43-19 55 0 5 4 8 8 6 3-1 91-78 94-82l4-8c0-4 1-4 2-4l11 3 8 2v3c-1 5-6 15-11 20-4 5-90 80-95 83-11 8-27 6-36-4-6-8-8-15-6-28 3-15 10-35 18-50l6-11c5-9 3-20-3-29-8-11-13-27-13-37 0-9-2-12-12-28-11-16-13-23-13-33l5-38 5-32 8 1 11 1zm-65 10c-2 14-7 25-14 36-6 8-11 13-23 22-6 5-10 8-10 10l4 9c8 11 9 15 10 23 0 11-2 18-10 26s-14 10-25 10c-9-1-13-2-22-8-4-3-7-4-9-2l-4 8c-8 15-22 23-43 23l-6-1c-1-1 0-8 2-16l1-5h7c11 0 16-3 22-14 4-11 12-16 23-17 7 0 11 1 19 6s12 6 17 4c4-2 7-7 7-11s-1-7-8-17c-6-9-7-15-6-23 2-8 5-12 18-22 17-12 23-21 28-37l2-8 10-2 11-3-1 9zm-91 225c9 3 15 10 17 19l1 6h12c11 1 13 1 19 3 7 4 15 12 19 19 2 6 3 8 3 16s-1 10-3 15c-4 8-10 14-18 18l-6 3-21 1h-20l-10-10-10-10 28-1h29l3-3c9-7 9-20-1-27-3-2-4-2-19-3l-18-2c-5-3-9-10-9-19l-1-5-24-1H54l-3-9-3-11c0-2 52-2 58 0z"/><path d="M377 152c-4 2-8 10-10 19-2 11 3 26 11 33 6 5 14 3 17-4 2-4 1-6-3-11-5-7-5-14-2-21l3-7c0-3-3-8-6-10-4-1-6-1-10 1z"/></svg>