<svg version="1.0" xmlns="http://www.w3.org/2000/svg" fill="white" stroke="white" viewBox="0 0 512 512"><path d="M239 1A224 224 0 0 0 57 326l-5-2c-9-2-27-1-35 2-9 3-15 7-16 11l-1 85v83l3 4 4 3h248l251-1 4-4c2-3 2-10 2-85l-1-85c-1-4-7-8-16-11-8-3-26-4-35-2l-5 2 5-11A224 224 0 0 0 289 2c-10-1-41-2-50-1zm36 20 19 3 8 1v10c0 12-2 18-9 22-3 1-9 2-49 2h-46l-3 3c-4 4-4 10 1 14l6 3c11 0 18 12 12 21-5 7-3 7-67 7l-57-1 21-24a199 199 0 0 1 164-61zm69 19a201 201 0 0 1 89 84l2 3h-17l-21 1c-6 2-8 11-3 16l3 3h48l3 7c7 21 11 44 11 69a196 196 0 0 1-36 116c-5 1-15-2-27-8-14-7-20-8-35-8l-11 1-2-4c-3-10-2-24 3-33 4-6 12-14 18-17l13-3c9-1 12-3 13-8 1-4-1-9-5-11l-32-1-36-1c-23-4-40-25-40-49 0-19 10-36 27-44 9-5 11-7 11-12 0-3 0-5-3-7-4-4-7-4-17 1-18 8-31 26-37 46-2 8-2 24 0 32a71 71 0 0 0 67 54h11l-3 4c-8 10-13 26-12 39l5 21c1 2-6 6-14 7-10 2-16 0-29-6-14-8-20-9-35-9l-11 1-2-6c-6-14-18-25-34-31-5-2-8-2-33-3-24 0-28-1-30-2-9-6-9-18-1-23 3-2 5-2 14-2 12 0 19-1 27-5 16-8 26-28 23-45-3-19-18-33-37-36l-58-1-51-1 12-32 5-10h133l6-3c7-3 14-10 17-17s4-17 2-24l-2-4h60l7-4c8-4 15-11 19-19 2-4 3-7 3-15V31l6 2 15 7zM173 192c15 7 19 27 7 38-3 2-6 5-8 5l-17 2c-12 0-15 1-19 3-7 3-13 8-16 16-3 6-3 7-3 14s0 10 2 14c4 7 10 14 17 17 5 3 6 3 34 3 27 1 28 1 33 3l10 6c4 4 10 15 10 18 0 2-8 6-16 7-8 2-16 0-29-7-13-6-20-8-31-8-12 0-19 2-32 9-10 5-21 8-25 7-5-1-20-30-26-49a198 198 0 0 1-8-99 876 876 0 0 1 117 1zM53 346l10 5c10 5 18 7 30 7 11 0 20-2 32-9 9-5 14-6 25-6 7 1 9 1 20 7 24 12 38 12 63 0l12-7h22l12 7c25 12 39 12 63 0l12-7h11c10 0 12 1 16 3l12 6c9 5 16 6 28 6 11 0 20-2 31-9l11-5c6-2 17-1 24 0l5 2v146H20V346l5-2c7-2 22-1 28 2z"/><path d="M352 128c-10 4-7 19 4 19 4 0 8-3 9-8 1-4-1-9-5-11h-8zM134 401c-4 0-12 4-19 7l-12 6-11 1c-10 0-11-1-19-4-9-5-12-5-16 0-3 3-3 9 0 12 3 4 12 8 21 10 8 3 21 3 30 0l17-7c17-9 27-9 45 1a61 61 0 0 0 62 0c19-10 29-10 48 0a60 60 0 0 0 62-1c17-8 28-9 41-2 18 9 24 11 37 11 14 0 30-6 35-12 3-3 3-9 0-12-5-5-7-5-16 0-8 3-9 4-19 4h-11l-12-7-20-8c-14-3-30 0-43 8-10 6-16 7-25 7-8-1-10-1-21-7-15-8-19-8-32-8s-16 0-32 8c-11 6-13 6-21 7-9 0-15-1-25-7-13-8-30-11-44-7z"/></svg>