<svg version="1.0" xmlns="http://www.w3.org/2000/svg" fill="white" stroke="white" viewBox="0 0 512 512"><path d="M233 33c-24 4-41 9-62 20-39 19-67 47-86 85a194 194 0 0 0 12 192c9 15 15 21 19 22 6 1 11-1 15-5s4-4 6-17c1-13 5-20 20-38 17-20 20-29 18-53-1-8 0-9 18-22 8-7 17-13 19-16 10-9 14-21 11-34-4-20-16-31-45-40-20-6-26-8-30-11l-3-6c0-4 24-21 41-30 10-4 28-11 36-12l3-1 1 9c4 26 12 41 31 54 13 9 14 10 15 28 1 15 3 20 10 27 7 6 13 7 24 7 16-1 33-10 47-23 8-7 12-13 14-21 3-9 8-15 15-18 3-1 3-1 8 7a159 159 0 0 1-11 189 16 16 0 0 0 25 20 190 190 0 0 0-21-265 193 193 0 0 0-150-48zm53 34c25 5 54 19 72 34l4 4-5 4c-10 7-16 16-19 27l-4 7c-3 5-22 17-28 17-2 0-2-1-2-4 0-8-3-22-6-29-4-8-11-16-22-23-8-5-12-10-15-17l-4-20v-3h10l19 3zm-145 81c4 2 14 6 23 8 17 6 23 9 26 13 4 7 4 7-17 23l-19 15a41 41 0 0 0-11 36c2 12 0 17-14 33l-12 16-3 5-3-6c-5-10-11-29-13-40a165 165 0 0 1 19-107l5-8 6 4 13 8z"/><path d="M286 226c-22 5-43 24-54 47a67 67 0 0 0-1 60c6 14 11 18 19 18 10 0 16-6 16-15 0-5-1-7-4-12-7-12-8-24-2-37s22-27 33-30c7-2 11 0 17 5 11 12 13 30 4 46-1 3-6 9-10 13-7 8-9 12-7 19 0 5 6 11 11 12 8 1 11 0 20-10 13-13 20-27 23-44 2-14 0-26-7-41-3-8-6-11-12-17a47 47 0 0 0-46-14zM52 370c-13 3-20 9-20 18 0 4 3 10 6 13 5 3 10 3 17 1 5-2 9-2 11-2l17 7c24 12 35 12 58 0 18-9 20-9 37 0 24 12 35 12 59 0 18-9 20-9 38 0 24 12 34 12 58 0 18-9 20-9 37 0 24 12 35 12 59 0l17-7 11 2c7 2 12 2 17-2 4-2 6-9 6-14-1-10-11-16-28-18-11-1-18 1-33 9-18 9-20 9-38 0-15-8-22-10-33-9-9 1-16 3-27 9-9 6-14 7-19 7l-17-7c-24-12-34-12-58 0-18 9-20 9-38 0-15-8-22-10-33-9-9 1-16 4-27 9-9 6-14 7-19 7l-17-7c-18-9-27-11-41-7zm0 64c-13 3-20 9-20 18 0 4 3 10 6 13 5 3 10 3 17 1 5-2 9-2 11-2l17 7c24 12 35 12 58 0 18-9 20-9 37 0 24 12 35 12 59 0 18-9 20-9 38 0 24 12 34 12 58 0 18-9 20-9 37 0 24 12 35 12 59 0l17-7 11 2c7 2 12 2 17-2 4-2 6-9 6-14-1-10-11-16-28-18-11-1-18 1-33 9-18 9-20 9-38 0-15-8-22-10-33-9-9 1-16 3-27 9-9 6-14 7-19 7l-17-7c-24-12-34-12-58 0-18 9-20 9-38 0-15-8-22-10-33-9-9 1-16 4-27 9-9 6-14 7-19 7l-17-7c-18-9-27-11-41-7z"/></svg>