<svg version="1.0" xmlns="http://www.w3.org/2000/svg" fill="white" stroke="white" viewBox="0 0 512 512"><path d="M411 1a474 474 0 0 0-85 142c-7 24-5 48 6 71a96 96 0 0 0 61 54c7 2 10 2 23 2 16 0 25-1 37-7 36-16 61-57 59-98-2-28-19-65-57-121-17-27-27-39-31-42-4-2-9-3-14-1zM217 46l-33 4-5 2-1 45 1 49c1 5 7 10 12 11 3 1 5 1 12-1 20-7 41-1 52 15 9 12 10 18 9 48 0 10 0 11 2 14 4 7 8 8 28 8h18l-3-5c-13-22-20-54-17-77 2-14 5-27 11-41a471 471 0 0 1 25-52l-11-5c-32-12-67-18-100-15z"/><path d="M138 66a236 236 0 0 0-87 67l-2 3 46 42 50 45c5 6 10 16 12 23l1 42 1 40c2 5 5 7 9 9 5 3 11 3 19-1 9-4 17-5 25-5 21 3 38 17 42 37 2 6 2 17 2 75l1 68 25-4 4-1v-44l2-50c10-33 39-56 73-56 17 0 20 1 51 17l28 14 1-2c6-9 16-38 20-55s6-39 4-39l-7 3a120 120 0 0 1-113-17l-8-6h-31c-34 0-39 0-48-6-8-4-16-12-20-20-4-9-5-17-4-33 1-15 1-19-3-23-5-6-12-7-20-4-21 7-43 0-55-18-7-11-7-11-8-61l-1-45-9 5z"/><path d="M25 174a233 233 0 0 0 193 337l8 1v-67l-1-71c-1-5-7-10-12-12-6-1-8-1-19 4-8 3-19 4-28 2-13-3-26-13-32-24s-6-14-6-54c0-34 0-38-2-42a4077 4077 0 0 0-94-87l-7 13zm323 214c-16 5-28 18-31 34l-1 75 10-4a236 236 0 0 0 98-80l-26-14-25-12-10-1c-7 0-11 0-15 2z"/></svg>