<svg version="1.0" xmlns="http://www.w3.org/2000/svg" fill="white" stroke="white" viewBox="0 0 512 512"><path d="M216 33A226 226 0 0 0 18 226a225 225 0 0 0 352 213l5 6c8 10 23 19 37 23 10 2 24 2 35-1 18-6 33-18 41-35 9-17 10-32 5-48-5-12-15-32-27-50l-11-16 3-9c4-18 5-30 6-53a207 207 0 0 0-45-134c-9-12-26-31-37-40a232 232 0 0 0-166-49zm-34 32 6 8-13 5c-16 4-24 12-26 23-1 7 1 14 7 28 8 15 9 20 7 25-3 4-10 10-16 12-6 1-15 1-16-1l-1-13c1-11 0-14-5-21l-7-7c-5-2-6-2-14-2l-17 2-9 2a209 209 0 0 1 96-67l8 6zm151 5c23 12 39 24 57 43a207 207 0 0 1 53 188l-5-6c-9-11-12-11-25 6l-17 22-8 11-7 1c-12 0-24 5-39 14-17 12-21 13-26 9-7-5-12-17-12-27 0-5 2-12 4-12h9c27 4 43-12 43-46 0-17-4-29-12-38-4-5-7-7-13-8-9-2-17 1-38 13-20 12-31 12-41 1-16-18-20-58-9-83 2-5 4-6 6-7 2 0 3 0 8 7 17 19 25 24 38 25 15 0 28-4 40-15 7-8 11-14 14-23 3-14-1-23-22-39-15-12-19-18-18-28 1-6 4-14 6-14l14 6zM42 242l8 12c6 13 7 22 5 36-4 19 3 32 20 37l30 2c34 1 44 4 54 13 9 8 14 18 17 41 4 30 10 42 23 50 7 4 12 6 25 7s24 4 34 10l13 11-11 2A209 209 0 0 1 43 323c-9-27-13-56-10-82 0-7 0-8 2-7l7 8zm395 79c28 37 43 66 43 81 0 13-6 26-15 36a48 48 0 0 1-38 15c-28 0-51-22-51-51 0-6 0-9 3-16a312 312 0 0 1 49-78l9 13z"/></svg>