<svg version="1.0" xmlns="http://www.w3.org/2000/svg" fill="white" stroke="white" viewBox="0 0 512 512"><path d="M238 33a231 231 0 0 0-157 83c-9 11-19 28-17 29l9 3c13 4 33 15 43 22 12 10 24 23 34 38 15 21 22 25 44 22 17-3 23-2 28 3 2 3 3 4 3 11l-1 13c-2 10-14 46-17 53-7 13-11 15-27 16-12 1-23 4-37 11-13 6-14 9-5 32l7 23c2 15 1 29-5 39l-2 4 4 2c21 14 54 25 82 29l5 1v-11c2-21 6-34 17-45 7-7 35-28 42-31 5-3 12-3 21 0 6 3 7 3 12 2l10-4c6-3 7-4 10-11 13-23 46-66 55-73 11-6 22-4 32 6a458 458 0 0 1 28 32c3-6 11-35 13-45v-5h-11c-9 0-36-3-58-7-13-2-25-11-40-28a594 594 0 0 0-21-26c-2-5-1-13 3-28 7-22 7-35 3-55-3-12-2-29 1-38s9-19 17-28l6-7-5-3c-7-5-28-14-37-18-22-8-42-11-67-12l-23 1z"/><path d="M376 81c-7 8-11 16-15 25-3 9-3 19 0 32 2 8 2 14 2 23 0 14 0 19-5 37l-4 15c0 2 3 6 11 16 18 21 26 28 35 30 10 2 49 7 59 7 13 1 13 1 13-14a224 224 0 0 0-89-177l-7 6zM54 162c-6 11-14 39-17 58a220 220 0 0 0 84 203l4 3 3-6c2-5 2-6 2-15-1-9-1-12-7-29-7-20-8-29-6-36 4-13 41-30 65-30 8 0 10-2 19-32 6-17 10-33 9-34l-15 1c-29 3-40-2-58-28a136 136 0 0 0-81-57l-2 2zm347 150c-7 7-20 23-31 40-28 40-34 62-21 88 6 15 18 27 32 34 22 10 48 8 69-8 21-15 32-46 24-70-6-17-22-42-41-67-21-26-23-27-32-17zm-108 83-18 13c-25 19-28 23-29 45v14c1 2 20 1 32 0 17-2 41-8 54-13l4-2-3-6a92 92 0 0 1-5-46l1-3-4 1c-8 1-15 0-22-2-6-3-7-3-10-1z"/></svg>