<svg xmlns="http://www.w3.org/2000/svg" viewBox="0 0 512 512" fill="white" ><path d="M247 25c-16 1-31 2-46 6v24h46V25zm18 0v30h46V31c-15-4-30-5-46-6zm-82 10c-17 5-32 11-46 20h46V35zm146 0v20h46c-14-9-29-15-46-20zM112 73c-24 22-39 51-39 87v23h46V73h-7zm25 0v110h46V73h-46zm64 0v110h46V73h-46zm64 0v110h46V73h-46zm64 0v110h46V73h-46zm64 0v110h46v-23c0-36-15-65-39-87h-7zM73 201v110h46V201H73zm64 0v110h46V201h-46zm64 0v110h46V201h-46zm64 0v110h46V201h-46zm64 0v110h46V201h-46zm64 0v110h46V201h-46zM73 329v110h46V329H73zm64 0v110h46V329h-46zm64 0v110h46V329h-46zm64 0v110h46V329h-46zm64 0v110h46V329h-46zm64 0v110h46V329h-46zM41 457v30h430v-30H41z" fill="#fff"/></svg>
