<svg xmlns="http://www.w3.org/2000/svg" viewBox="0 0 512 512" fill="white" ><path d="M254 19a237 237 0 1 0 5 474 237 237 0 0 0-5-474zm2 54a182 182 0 0 1 39 4h3l1 1a189 189 0 0 1 5 1 187 187 0 0 1 9 2c41 14 75 41 97 75l1 1 2 3a187 187 0 0 1 4 8 198 198 0 0 1 2 3v1l1 1c18 36 25 79 16 121l-1 5a218 218 0 0 1-1 4 184 184 0 0 1-3 9c-13 42-40 75-75 98a190 190 0 0 1-12 7l-3 2h-1c-37 19-79 25-122 16a156 156 0 0 1-4-1 206 206 0 0 1-14-4c-41-13-75-40-97-75l-3-4-1-1a180 180 0 0 1-3-6l-2-4v-1a183 183 0 0 1-15-126 205 205 0 0 1 2-8v-1l2-4c13-42 40-75 74-98a183 183 0 0 1 4-2l3-2 1-1 2-1 2-1a179 179 0 0 1 4-2 182 182 0 0 1 83-20zm34 22-26 96a66 66 0 0 1 18 5l26-97a167 167 0 0 0-9-2l-9-2zm-107 14a165 165 0 0 0-17 9l50 87a66 66 0 0 1 16-10l-49-86zm211 57-86 49a66 66 0 0 1 9 17l87-50a166 166 0 0 0-10-16zm-293 38-3 9a169 169 0 0 0-2 10l96 25 1-9a66 66 0 0 1 3-9l-95-26zm154 5a47 47 0 0 0-11 92c25 7 51-8 58-33s-8-51-33-57a47 47 0 0 0-10-2 46 46 0 0 0-4 0zm2 19h1l6 1c15 4 24 19 20 34s-20 24-35 20-24-19-20-34c4-13 15-22 28-21zm65 36a65 65 0 0 1-2 9l-3 9 96 25a166 166 0 0 0 5-18l-96-25zm-126 16-86 50a165 165 0 0 0 9 16l86-50a66 66 0 0 1-9-16zm101 27a66 66 0 0 1-16 10l50 86 16-9-50-87zm-66 9-26 96a166 166 0 0 0 18 5l26-96a66 66 0 0 1-9-2 65 65 0 0 1-9-3z" fill="#fff"/></svg>
