<svg xmlns="http://www.w3.org/2000/svg" viewBox="0 0 512 512" fill="white" ><path d="M256 14a240 240 0 1 0 1 480 240 240 0 0 0-1-480zm0 18a222 222 0 0 1 222 235c-31 9-68-14-85-43-48 66-90 73-130-2-37 68-104 73-137 20-34 46-56 52-91 29a226 226 0 0 1 0-17c0-123 99-222 221-222zm139 245c20 41 59 28 82 2-5 42-21 81-47 113-33 18-59 7-89-46-42 75-110 68-161 2-17 28-63 50-97 45-22-28-37-60-44-96 23 22 64 29 84-4 32 49 100 52 140-5 24 34 86 65 132-11zM178 402c48 75 137 45 163 10 17 20 37 21 57 13a221 221 0 0 1-285-2c24 9 51 5 65-21z" fill="#fff"/></svg>
