<svg xmlns="http://www.w3.org/2000/svg" viewBox="0 0 512 512" fill="white" ><path d="M55 25 27 167h145l84-84 84 84h145L457 25zm201 84-76 76H41v302h158v-87c0-18 7-33 18-43 11-9 25-14 39-14s28 5 39 14c11 10 18 25 18 43v87h158V185H332zm0 38 57 57v93H199v-93zm0 26-39 39v67h78v-67zM71 199h98v98H71zm272 0h98v98h-98zM89 217v30h62v-30zm272 0v30h62v-30zM89 265v14h62v-14zm272 0v14h62v-14zM71 359h98v98H71v-98zm272 0h98v98h-98v-98zm-87 2a38 38 0 0 0-39 39v87h78v-87a38 38 0 0 0-39-39zM89 377v62h62v-62zm272 0v62h62v-62z" fill="#fff"/></svg>
