<svg xmlns="http://www.w3.org/2000/svg" viewBox="0 0 512 512" fill="white"><path d="M336 155c11 9 24 20 30 34 3 8 8 10 15 13a4974 4974 0 0 0 84 30 1727 1727 0 0 0 13 5l2 1c7 2 13 5 16 12 1 6 1 10-2 16-4 4-9 7-15 9h-2a1250 1250 0 0 1-77 29 6134 6134 0 0 0-16 5c-12 4-17 9-22 20-8 15-23 27-37 36l-3 2c-28 17-64 22-95 15-24-6-44-18-62-35l-2-2-14-16-1-2-2-4c-4-8-8-10-15-13a4974 4974 0 0 0-84-30 1727 1727 0 0 0-13-5l-2-1c-7-2-13-5-16-12-1-6-1-10 2-15a37 37 0 0 1 17-10 1250 1250 0 0 1 77-29 6134 6134 0 0 0 16-5c12-4 17-9 22-20 8-15 23-27 37-36l3-2c45-27 105-23 146 10Zm-153 39c-6 7-10 15-14 23-6 9-18 12-27 15a5189 5189 0 0 0-18 7l-12 4-15 6-2 1a5102 5102 0 0 1-14 5v2l3 1a46529 46529 0 0 1 75 29c5 2 8 4 10 9l1 2 1 2c4 8 8 14 14 20l2 3c16 15 39 28 61 28a98 98 0 0 0 97-58c3-5 8-7 13-9l2-1a1156 1156 0 0 1 23-8l15-5a5451 5451 0 0 1 33-13v-2l-3-1a30349 30349 0 0 1-66-25l-2-1-6-2-3-1c-6-3-8-9-11-14a94 94 0 0 0-53-46c-39-12-76-1-104 29Z"/><path d="m281 196 3 1c17 9 28 22 34 39 4 14 4 32-2 45l-1 3c-8 17-22 28-39 34-17 5-37 3-52-6-16-8-26-23-31-40-3-13-2-29 3-41l1-3a66 66 0 0 1 84-32Zm-50 40c-6 9-7 16-6 27 2 8 6 15 13 20 9 5 18 6 28 3s15-10 20-19c3-8 2-18-2-26-4-7-10-13-19-16-13-2-25 1-34 11Zm-126 84c7 3 9 9 13 15 6 9 11 17 18 25l3 3a155 155 0 0 0 107 51c15 1 15 1 21 5 4 4 6 9 6 14-1 6-3 9-7 13-13 8-40 1-54-2l-2-1c-48-10-90-42-116-82-12-19-12-19-11-30 1-4 4-7 7-9 5-3 9-3 15-2ZM250 64l3-1c7 0 10 1 15 5 3 4 5 8 5 13-1 5-2 8-6 12-7 4-15 4-23 5-12 1-23 3-34 6l-2 1c-18 5-35 14-50 26l-2 1c-12 10-22 22-31 35-3 4-6 7-11 9-5 1-10 1-15-1-4-4-6-8-7-13-1-14 14-28 23-37 34-38 85-61 135-61Zm96 21c27 14 50 35 67 59l2 2c4 6 6 11 5 18-1 5-3 7-7 11-5 2-10 2-15 1-5-3-8-5-12-10-20-30-48-50-82-61-6-2-11-4-15-10-2-6-2-12 1-17 14-17 40-1 56 7Zm62 257c5 3 7 6 8 11 2 7 0 12-4 17-21 28-48 48-79 63l-4 2c-5 2-10 2-15 1-5-2-7-5-10-10-1-5-1-9 1-14 4-7 12-9 19-13 11-5 21-10 30-18l2-1c12-10 21-20 30-33 6-7 14-8 22-5Zm14 106c5 2 8 5 10 10 1 6 1 10-2 16-4 4-7 6-14 7-7-1-10-3-14-7-3-6-3-10-2-16 4-10 12-11 22-10Zm48-48c5 2 8 5 10 10 1 6 1 10-2 16-4 4-7 6-14 7-7-1-10-3-14-7-3-6-3-10-2-16 4-10 12-11 22-10ZM86 80c5 2 8 5 10 10 1 6 1 10-2 16-4 4-7 6-14 7-7-1-10-3-14-7-3-6-3-10-2-16 4-10 12-11 22-10Zm48-32c5 2 8 5 10 10 1 6 1 10-2 16-4 4-7 6-14 7-7-1-10-3-14-7-3-6-3-10-2-16 4-10 12-11 22-10ZM54 32c5 2 8 5 10 10 1 6 1 10-2 16-4 4-7 6-14 7-7-1-10-3-14-7-3-6-3-10-2-16 4-10 12-11 22-10Z"/></svg>