<svg xmlns="http://www.w3.org/2000/svg" viewBox="0 0 96 96" fill="white"><path d="M63.6 22A2140.1 2140.1 0 0 0 83 23.9l3.6.3 3.3.3 3 .3C95 25 95 25 96 26a69.8 69.8 0 0 1 .1 7.4v6.4a3131 3131 0 0 1 0 23.6v8.7C96 74 96 74 95 75a98.5 98.5 0 0 1-8.4.9l-3.6.3-3.7.3-9.8.9-9.8.9c-36.4 3.2-36.4 3.2-49.1-.7L8 76.9c-5.5-1.6-5.5-1.6-8-2.9V26l10-3 2.8-1c15.8-5 34.6-1.4 50.8 0ZM28 25v50c7.6 0 7.6 0 15-.5l3.4-.3c1.2 0 2.3-.2 3.5-.3l3.7-.3a7576.2 7576.2 0 0 0 19.3-1.8L92 70V30a19873 19873 0 0 0-42-4l-3.6-.2-3.3-.3-3-.3c-4-.3-8-.2-12.1-.2Zm-12 2v46l8 2V25c-2.7 0-5.4 1.2-8 2ZM4 30v40l8 2V28c-2.7 0-5.4 1.2-8 2Z"/><path d="M36 28h4v44h-4V28Zm16 2h4v40h-4V30Zm16 2h4v36h-4V32Zm16 2h4v32h-4V34Z"/></svg>