<svg xmlns="http://www.w3.org/2000/svg" viewBox="0 0 512 512" fill="white" ><path d="M256 512a256 256 0 1 0 0-512 256 256 0 1 0 0 512zm-92-186a120 120 0 0 0 184 0 16 16 0 1 1 24 21 153 153 0 0 1-232 0 16 16 0 1 1 24-21zm54-97h-1v-1l-3-4-10-10c-9-8-19-14-28-14s-19 6-28 14a121 121 0 0 0-13 14v1h-1c-2 3-5 4-8 3s-6-4-6-8c0-18 7-36 17-49 9-13 24-23 39-23s30 10 39 23c10 13 17 31 17 49 0 3-2 7-5 8s-7 0-9-3zm160 0h-1v-1l-3-4-10-10c-9-8-19-14-28-14s-19 6-28 14a121 121 0 0 0-13 14v1h-1c-2 3-5 4-8 3s-6-4-6-8c0-18 7-36 17-49 9-13 24-23 39-23s30 10 39 23c10 13 17 31 17 49 0 3-2 7-5 8s-7 0-9-3z"/></svg>
