<svg xmlns="http://www.w3.org/2000/svg" viewBox="0 0 280 304" fill="white"><path d="m148 39 4 2c15 7 31 10 47 5l6-3c5-2 9-3 15-2 9 4 14 15 19 23l2 3c4 7 5 12 4 20l-4 8a999 999 0 0 0-4 8 59 59 0 0 0-1 49c9 22 9 22 9 31v4c1 16-5 32-16 44-10 10-24 16-36 22a9285 9285 0 0 0-38 19l-3 2c-6 3-12 5-18 2l-7-3-3-1a1038 1038 0 0 1-49-25c-17-8-30-20-37-38-5-16-3-33 3-48a1373 1373 0 0 0 5-11c2-7 3-13 3-20v-3c0-11-3-21-9-31l-1-4-2-3c-2-5-2-10 0-16l6-10 1-3c9-16 9-16 16-19 7-1 13 1 19 4 12 5 28 5 40 0l12-5c6-3 11-4 17-1Z"/></svg>