<svg xmlns="http://www.w3.org/2000/svg" viewBox="0 0 512 512" fill="white"><path d="M313 87c8 8 14 16 20 26a122 122 0 0 0 14 18 111 111 0 0 0 79 36h2a2931 2931 0 0 0 27 1h42l7 21 1 3 4 22 1 2 1 14h-2a49327 49327 0 0 0-122 1c-33 0-33 0-65 4l-3 1c-45 10-86 32-118 65a92 92 0 0 1-38 26l-3 1c-18 5-38 5-55-1l-4-1c-15-6-28-17-38-30-17-22-39-36-63-49-1-26 4-54 14-78 2-2 3-1 6-1h6a15979 15979 0 0 0 18 0c18-1 37-1 54-7h3c38-12 67-36 91-66 30-37 85-35 121-8Zm-92 33a51 51 0 0 0-13 38c1 12 7 24 16 32 11 9 24 13 38 12a49 49 0 0 0 41-60c-2-7-5-12-9-18l-2-3c-9-10-22-16-35-16-14 0-26 5-36 15Zm-117 87-3 2c-9 9-14 19-15 32-1 14 3 27 14 38 10 10 22 15 37 14 13-1 24-6 33-16 10-12 14-25 12-40-2-8-5-15-10-22l-2-3c-9-9-20-15-33-15s-23 2-33 10Z"/><path d="M375 259a8067 8067 0 0 0 16 0h13a27647 27647 0 0 1 108 0v11l-1 20-1 3c0 5-1 11-3 16l-9 2a5440 5440 0 0 0-11 0c-13 1-26 3-38 10l-2 1c-17 9-29 24-35 42-6 20-3 40 6 59l12 15c2 2 2 2 2 5-13 15-33 27-50 37l-2 1c-15 9-31 16-48 20l-1-3c-5-13-12-26-21-37l-2-2c-27-33-78-49-118-53-40-3-82 3-118 23l-4 1c-15-7-27-32-35-46l-1-3c-8-13-14-26-19-41l-1-2a171 171 0 0 1-11-58c16 8 31 21 42 35a116 116 0 0 0 167 16l2-2 12-12c33-36 86-55 133-58h18Zm-89 70c-8 11-12 23-11 36 2 14 8 25 19 34 13 8 24 10 39 9l11-4 3-1a49 49 0 0 0 18-68c-7-11-17-18-30-22-18-5-37 2-49 16ZM256 0h3a216 216 0 0 1 46 4c23 4 45 12 66 22l2 1c22 11 42 26 60 43l2 2a223 223 0 0 1 49 67 3974 3974 0 0 1-36 0c-30 1-55-2-79-24-6-6-10-14-15-21-16-26-41-45-71-52-31-7-63-2-90 15-12 8-22 18-30 29a138 138 0 0 1-105 53h-3a3025 3025 0 0 1-27 0c1-4 2-7 5-11l1-2 2-3 1-2 14-20 2-3a260 260 0 0 1 75-65l3-1c13-8 26-14 41-19l2-1 30-8h3c16-4 32-4 49-4Z"/><path d="m249 451 2 1a99 99 0 0 1 51 48l2 8a1826 1826 0 0 1-36 4h-3c-65 1-125-18-175-60 38-33 119-20 159-1Zm249-112c-3 29-26 59-44 81-3 0-4-1-6-3-9-12-12-22-11-37 2-14 9-24 20-32 12-8 27-9 41-9Zm-164 5c4 3 6 6 8 10 1 7 1 13-3 18-3 5-7 7-12 7-6 1-11 0-16-4s-7-8-7-15c0-5 2-10 5-14 8-6 17-7 25-2Zm-65-205c4 4 6 8 6 15 0 6-1 9-5 14-5 4-10 6-16 5s-10-3-14-8c-4-6-4-10-3-17 2-5 5-9 10-12 7-3 16-2 22 3Zm-127 88c5 2 9 7 11 12 1 6 0 12-3 17-3 4-6 6-11 8-7 1-12 0-18-4-5-6-6-11-6-18 0-6 3-10 8-13 5-4 13-4 19-2Z"/></svg>