<svg version="1.0" xmlns="http://www.w3.org/2000/svg" fill="white" stroke="white" viewBox="0 0 512 512"><path d="m262 15-11 12c-2 5-2 7-2 13 0 9 2 14 9 22 5 5 5 6 5 10 1 5 0 5-5 10l-5 6h19c7 1 10-18 5-28l-7-10c-5-5-6-6-6-10 0-5 1-5 8-12 4-4 7-8 7-10 2-5-3-10-8-10l-10 7zM118 31l-11 12c-2 5-2 7-2 13 0 9 2 14 9 22 5 5 6 6 6 10 0 5-1 5-8 13-9 9-10 12-6 16 5 5 8 4 17-4l10-12c2-5 2-7 2-13 0-9-2-14-9-22-5-5-6-6-6-10 1-5 1-5 8-13 9-9 10-12 6-16-5-5-8-4-16 4zm272 0-11 12c-2 5-3 7-3 13 1 9 3 14 10 22 5 5 5 6 5 10 1 5 0 5-7 13-9 9-10 12-5 16 4 5 7 4 16-4l10-12c2-5 3-7 3-13-1-9-3-14-10-22-5-5-5-6-5-10 0-5 0-5 7-13 9-9 10-12 6-16-5-5-8-4-16 4zM198 47c-11 10-13 15-13 25 0 6 0 8 2 13l7 8 3 3 8-1 8-3-7-10c-5-5-5-6-5-10 0-5 0-5 7-13 9-9 10-12 6-16-5-5-8-4-16 4zm120 8c-10 10-13 15-13 25l1 11c2 3 2 4 15 8l13 3-8-12c-5-5-5-6-5-10 0-5 0-5 7-13 9-9 10-12 6-16-5-5-8-4-16 4zm-83 50c-34 4-69 18-97 40l-8 6 17 1c17 0 17 1 19 3 3 3 3 8 0 10l-3 3h-50l-6 7-6 8 31 1 35 1c6 2 14 10 16 16l1 11c0 6 0 7 3 9 1 2 3 3 5 3l6-3c2-2 2-3 2-9 0-10 2-15 8-21s10-7 24-7c10 0 11 0 14-3l2-5-2-6-3-2h-54l-2-3c-4-3-4-7 0-11l2-2h27l31 1c6 2 14 10 16 16 3 9 1 16-6 23s-10 8-25 8c-10 0-11 0-14 2-2 3-2 4-2 10 0 10-2 15-7 20-11 11-23 11-33 0-6-5-8-10-8-20 0-6 0-7-2-10l-3-2H89l-6 13c-6 12-10 23-13 36l-2 7h16c15 0 15 0 17 2 4 4 4 8 0 12-2 2-2 2-18 2l-18 1-1 15c-1 19 1 39 7 58l1 6h14c17 0 20 1 26 8 6 5 8 10 8 16 0 4 4 8 8 8s8-4 8-8c0-12 12-24 24-24 9 0 20 8 23 17l1 27v23l3 3 5 2 6-2 2-3v-23l1-27c2-6 10-14 16-16l23-1c19 0 19 0 22-2l2-6-2-5-3-3h-39l-43-1c-9-3-17-14-17-23s8-20 17-23l27-1h23l3-2 2-6-2-5-3-3H126l-2-2c-4-4-4-8 0-11l2-3h51l54 1c9 3 17 14 17 23s-8 20-17 23l-27 1h-23l-2 3c-4 3-4 7 0 11l2 2h39l43 1c6 2 14 10 16 16 3 9 1 17-6 24-7 6-10 7-33 7-19 0-19 0-22 3l-2 2v23l-1 27c-3 9-14 17-23 17s-20-8-23-17l-1-27v-23l-2-3c-5-4-14-1-14 6 0 12-12 24-24 24s-24-12-24-24l-2-5c-3-3-4-3-13-3H78l3 6a191 191 0 0 0 345 11l-18-1c-19 0-19 0-21 3-3 2-3 3-3 9 0 10-2 15-7 21-11 10-23 10-33 0-6-6-8-11-8-21 0-6 0-7-2-9l-6-3c-12 0-24-12-24-24 0-6 2-11 8-16 6-7 9-8 32-8 19 0 19 0 21 3 4 3 4 7 1 11-3 2-3 2-22 2s-19 0-21 3c-5 5-2 13 5 13 6 0 11 2 17 8 5 5 7 10 7 20 0 6 0 7 3 9 3 4 7 4 11 1 2-3 2-4 2-10 0-9 2-14 6-19 7-8 8-8 36-9l24-1 3-6 2-8-24-1c-25 0-25 0-28-2-3-4-3-8 0-12 3-2 3-2 30-2h27l1-6c5-26 4-56-4-84l-1-6h-16v18c0 21-1 24-7 30-11 11-23 11-33 0-7-6-8-9-8-29l-1-18-13-1c-11-1-13-1-16-3-5-3-9-8-10-14-1-7-1-7-11-7-11 0-15-1-21-8-8-7-10-14-7-23 2-6 10-14 16-16l44-1 41-1-7-7c-42-41-98-61-156-55zm100 152c9 3 17 14 17 23s-8 20-17 23h-46c-6-2-14-10-16-16-3-9-1-17 7-24l8-6h47zm-32 152c9 3 17 14 17 23s-8 20-17 23h-46c-6-2-14-10-16-16-3-9-1-17 7-24l8-6h47z"/><path d="M291 275c-2 1-3 3-3 5l3 6c2 2 2 2 21 2s19 0 22-2l2-6-2-5c-3-3-3-3-22-3s-19 0-21 3zm-32 152c-2 1-3 3-3 5l3 6c2 2 2 2 21 2s19 0 22-2l2-6-2-5c-3-3-3-3-22-3s-19 0-21 3zm56-240c-3 2-4 7-1 10 2 2 3 2 13 3 10 0 12 1 15 3 5 3 9 8 10 14l1 6 14 1c11 0 12 1 16 3l6 7c2 3 3 5 3 23 1 19 1 19 3 21 3 3 7 3 10 0 2-2 2-2 3-23 0-19 1-21 3-24 4-5 6-6 15-7h8l-6-12-11-20-5-8h-95l-3 3z"/></svg>