<svg xmlns="http://www.w3.org/2000/svg" viewBox="0 0 512 512" fill="white" stroke="white"><path d="M390 16v4l-1 2-1 3-1 3-2 4a3642 3642 0 0 1-36 84l13-7 2-2c9-4 17-9 26-15l4-1-7 18-1 3a7988 7988 0 0 1-10 27 41 41 0 0 0 9-6l2-1 2-2a1473 1473 0 0 0 49-38l4-1-6 10-2 2a2631 2631 0 0 1-49 69l-2 2-1 2-7 9 4-1a13088 13088 0 0 1 43-14l-6 12-1 2a4002 4002 0 0 1-32 60l-2 3a47271 47271 0 0 0-67 126l-2 3-2 3-3 3v-2c-2-19-5-37-15-54v-5a290 290 0 0 0 28-36 457 457 0 0 1 10-13l1-2c2-2 3-3 3-7l-1-2h-5l-6 7-1 2a812 812 0 0 0-34 43c-3-1-4-2-6-5l-19-20c1-3 1-5 3-7a212136121 212136121 0 0 1 7-9l2-2 9-10 1-2a1141 1141 0 0 0 18-23c2-2 2-2 2-5l-1-2h-5l-6 7a10453 10453 0 0 1-5 7l-8 10a6948 6948 0 0 0-24 29l-9-4c-10-6-20-10-31-13l1-8c-3-2-3-2-7-2l-1 2-3 5h-11c-17-1-33 1-49 5l7-10 1-2a414 414 0 0 1 24-28 336 336 0 0 1 24-29 352 352 0 0 1 27-33 928 928 0 0 1 39-48 551 551 0 0 0 25-30l3-3 2-3 2-2h2l-9 52a365 365 0 0 0 26-30l2-2a29264 29264 0 0 1 65-77l5-5ZM271 178l-2 2-4 5-2 3a828 828 0 0 0-12 15l-2 2-9 10-1 2a2512 2512 0 0 1-8 10l-2 2-1 2-2 2-1 5 4 3c3 0 5-3 7-5a359 359 0 0 0 14-17l2-2 9-12 7-8a2008 2008 0 0 0 10-13l2-2 2-2v-7l-3-1c-4 0-6 3-8 6Zm53 17-3 3-2 3-3 7 2 3h5l7-8 2-3v-5l-1-2c-4-1-5 0-7 2Z"/><path d="m258 295 2 2c6 4 10 10 15 16l2 2a115 115 0 0 1-69 179l-3 1c-29 6-59-2-84-17l-10-8-2-2c-23-20-37-47-39-77-2-29 7-59 26-82 19-21 43-36 72-40h3c31-4 62 6 87 26Zm-85-2v5c3 2 4 2 7 2h6c19 1 37 7 52 20l2 2c7 6 12 13 16 21l5 3 4-1 1-2c-5-18-21-32-37-41-14-7-28-11-43-11h-9l-4 2Zm-73 42c-5 6-5 12-4 20 2 8 8 13 15 17 7 2 14 2 20-1 7-4 11-9 14-17 1-6 0-12-4-18s-10-10-17-12c-10-1-18 3-24 11Zm167 27c-2 3-2 4-2 8 3 24-2 46-17 65-7 7-13 13-22 18l-4 3v5l2 2c5 0 9-2 13-5l2-2a92 92 0 0 0 35-92l-4-2h-3Zm-114 15c-4 6-5 11-3 18 2 5 5 7 10 10 5 2 9 2 14 0 4-3 8-6 10-11 1-6 1-11-3-16-4-4-7-7-14-7-6 0-10 2-14 6Zm-49 23c-4 4-7 10-7 17 0 6 3 11 7 16 5 4 10 5 17 5 6-1 11-4 14-9 4-6 5-11 4-17-2-7-6-11-12-15-8-3-15-2-23 3Zm52 62-1 5 4 4c13 4 32 5 46 1l3-3-2-6h-5c-13 1-25 2-38-1h-7Z"/><path d="M127 334c4 3 7 5 9 10 0 6 0 10-3 14-2 4-5 6-10 6-6 1-9 0-14-4l-2-2c-3-3-2-8-2-12s1-6 4-9c6-4 11-5 18-3Zm-2 72c3 2 4 3 5 7 0 5 0 8-3 12l-1 2c-3 2-6 2-10 2-4-1-6-2-9-5-1-4-2-8-1-12 2-4 4-6 8-7s7-1 11 1Zm45-26c3 1 3 1 5 4v9c-3 3-4 4-9 5l-5-3c-3-3-3-5-3-9 2-6 6-7 12-6Z"/></svg>