<svg version="1.0" xmlns="http://www.w3.org/2000/svg" fill="white" stroke="white" viewBox="0 0 512 512"><path d="M239 33c-23 1-49 7-67 15l-4 2 6 3a435 435 0 0 0 217 25 207 207 0 0 0-104-44c-11-1-39-2-48-1z"/><path d="m138 66-18 12c-12 9-37 34-38 38s2 17 4 22c6 13 20 20 32 15l15-13c11-11 19-17 32-22l12-3c4-1 5 0 7 3 3 3 3 3 3 11-1 8-1 9 1 12 4 6 6 6 18 2 13-4 26-5 38-4 18 2 26 7 32 18 2 5 2 7 2 14s0 10-2 14c-2 6-8 12-13 15-7 3-44 13-55 14-15 3-36 2-51 0l-15-2c-8 0-16 6-25 17l-11 20 27 6c11 2 39 2 52 0 22-4 34-8 49-18 30-20 66-30 114-31a353 353 0 0 1 130 20l-5-24-2-7-5-2c-6-3-13-7-27-18-19-13-39-18-69-17-17 1-29 3-44 9-8 3-12 3-15-1-3-3-2-9 1-11 3-3 18-8 31-11 18-4 45-4 63-1 21 5 30 9 48 22l9 6a219 219 0 0 0-44-68l-8-9-9 1c-38 7-90 8-129 2a399 399 0 0 1-125-37l-10 6z"/><path d="M161 139c-4 2-11 8-18 15-12 13-17 15-27 17-17 3-37-8-45-24l-3-8c0-3-2-1-7 7-18 31-28 68-28 102v14l4 2 16 1c11 1 12 0 18-3 9-4 14-10 21-24 8-15 17-27 25-34 12-9 21-11 37-8 20 4 45 4 63-1l39-11c3-1 6-8 6-12l-2-8c-3-6-6-7-25-7-15 0-16 0-25 3-11 4-18 4-25 1-8-5-16-16-16-24l-1-2-7 4zm169 85c-33 3-62 12-82 25a166 166 0 0 1-95 25c-18-1-28-3-46-7l-11-2-5 5c-11 10-23 14-41 13l-14-2h-3l2 9a201 201 0 0 0 19 62c0 1 20-3 27-6 8-2 11-4 23-12 22-16 46-25 75-30 41-5 81-1 127 15 19 6 39 12 55 14l8 2 2-2 8-13c10-16 20-24 35-30 4-1 8-2 20-1 14 0 24 1 36 6l6 3v-3c3-11 5-49 3-51a416 416 0 0 0-149-20z"/><path d="M419 307c-11 3-19 10-25 23-8 15-21 28-35 34-6 3-8 3-14 3-5 1-13 0-19-1-13-2-33-3-47-1-14 3-49 11-51 14-4 3-5 11-1 15s10 5 24 5c12 0 15 0 25-3 15-4 20-4 28 1 6 4 12 11 13 17l1 4a83 83 0 0 0 30-20c8-8 15-11 25-12 18-1 34 7 42 21l2 4 5-5a245 245 0 0 0 50-91c-1-2-17-7-24-9-10-2-22-1-29 1z"/><path d="M184 322c-33 4-50 11-71 26l-18 11a134 134 0 0 1-32 10c0 2 15 24 25 35l5 6 9-1c14-1 31-4 54-11a9186 9186 0 0 1 51-16l2-5c1-5 8-12 13-15s41-12 55-14a253 253 0 0 1 70 2c3-1 2-1-10-4l-34-10c-38-13-51-15-84-16-18 0-27 0-35 2zm18 80-31 10a317 317 0 0 1-59 14c-1 1 2 3 8 8a225 225 0 0 0 257 10c9-5 24-17 25-19 1-1-2-9-5-12-3-6-13-10-20-10s-14 3-19 8c-9 10-24 20-38 25-8 2-12 3-16 1s-5-6-4-14c0-6 0-7-3-9-3-4-7-4-12-2-14 4-37 6-50 4-8-1-18-7-22-12l-4-4-8 2z"/></svg>