<svg version="1.0" xmlns="http://www.w3.org/2000/svg" fill="white" stroke="white" viewBox="0 0 512 512"><path d="M218 18c-38 4-71 16-101 36l-8 6h10c11 1 18 4 25 10 6 8 8 12 9 22 1 14 0 15-34 55-16 19-31 36-32 39l-3 13c-2 15-8 27-20 34-8 5-15 6-32 6H17v4a251 251 0 0 0 16 76l7-14c8-19 15-26 30-30s28-1 39 10c3 3 7 6 9 6a424 424 0 0 0 51 19c7 3 16 12 20 18 6 11 7 17 7 42 0 24-1 28-6 36l-9 10c-9 6-10 10-10 23v12l13 3a199 199 0 0 0 71 6l-5-8c-11-14-21-35-25-56-2-9-3-13-3-29s1-20 3-29c5-24 15-45 30-63l5-6-4-3a69 69 0 0 1-25-60c2-17 8-29 20-41 6-6 10-9 17-12 14-7 20-8 50-8 26 0 26 0 29-2 2-2 2-4 2-6 0-3 0-5-2-7l-3-2h-32c-36 0-39 0-49-7-5-3-8-7-12-14-2-4-2-6-2-14V83l7-14a2379 2379 0 0 1 27-47c-3-3-49-6-65-4z"/><path d="m284 55-18 31c-3 5 0 16 5 20s7 4 43 5c33 0 35 1 39 3 8 4 14 14 14 23 0 5-4 13-8 17-7 7-7 7-40 8s-36 1-45 7a51 51 0 0 0-20 68c2 5 10 15 15 18l3 2 9-6c10-8 26-17 38-21 27-9 59-10 85-3l7 2 1-2 20-57 8-24-4-9A223 223 0 0 0 302 26l-18 29zM78 86c-31 33-52 77-58 121-3 17-4 15 11 15 16 0 21-1 27-6 5-4 9-12 9-18s2-14 4-20l33-40 31-37c2-3 2-11 0-15-2-3-6-7-9-8l-21-1H87l-9 9zm370 90-18 51-3 8 6 3c7 3 20 12 24 15l3 2a214 214 0 0 0-10-83l-2 4z"/><path d="M353 240a128 128 0 0 0-111 152 129 129 0 0 0 149 101c26-6 46-17 65-34a127 127 0 0 0 37-116c-6-27-17-47-36-66-18-19-38-29-63-35-8-2-34-4-41-2zm20 18c2 3 2 4 2 11l1 8 7-6c5-5 6-6 9-6 5 0 8 3 9 7 0 4 0 4-13 17l-13 14v49l43-25 5-17 6-18c3-2 9-3 12-1 3 3 3 7 1 15l-2 8 7-3 9-4c3 0 8 5 8 9s-3 7-10 11c-6 3-6 3 4 6 10 2 13 6 11 12-3 7-6 7-25 1l-17-4-21 12-21 13 21 13 21 12 17-5 18-4c3 0 8 5 8 8 0 5-4 8-12 10l-8 3 5 4 7 5c3 3 2 7 0 11-4 3-8 3-16-1l-6-4 2 9 2 10c-2 6-10 8-14 4-2-1-4-8-7-18l-5-18-43-24v49l13 14c11 11 13 13 13 16 0 4-4 8-9 8-3 0-4-1-9-6l-7-6-1 8c0 9-1 11-6 13-7 1-11-4-11-15v-6l-6 6c-6 5-7 6-11 6s-8-4-8-8c0-3 2-5 12-16l13-13v-25l-1-25-20 12-21 13-6 17c-2 10-5 17-6 18-3 3-9 3-12 0-3-4-3-6 0-15l2-8-6 4c-9 4-11 5-15 1-2-2-3-3-3-6 0-4 2-6 10-11l4-3-8-3c-8-2-11-4-11-9 0-4 2-8 6-9l19 4 17 5 21-12 21-13-21-13-21-12-18 5c-16 4-17 4-20 2-5-2-6-9-2-13l9-4 8-2-4-4c-8-4-10-6-10-10 0-3 1-4 3-7 4-3 6-3 15 2l6 3-2-7c-3-11-2-14 3-17 3-2 6-1 8 1 3 2 4 6 8 19l5 17 22 13 20 12v-50l-12-13c-11-11-13-13-13-16 0-4 4-8 9-8 3 0 4 1 10 6l6 6v-8c1-8 1-9 3-11 4-3 8-3 11 0zM73 292c-9 2-12 7-22 29l-9 20 4 7a222 222 0 0 0 107 95l1-9c0-13 5-23 16-31 9-7 9-9 9-35 0-25-1-28-9-36-5-6-12-9-37-17-22-8-26-10-34-16l-8-7c-5-2-13-2-18 0z"/></svg>