<svg xmlns="http://www.w3.org/2000/svg" viewBox="0 0 512 512" fill="white"><path d="M259 5c18 0 36 2 53 7l3 1c13 4 24 11 35 18l2 1 5 4v2l2 1c8 4 15 12 20 19v2h2c5 6 9 13 12 21l4 6 5 13 1 2a145 145 0 0 1 7 53c1 36-15 69-39 96l-3 1v2l-3 3-2 2-4 1v2l-4 3-2 2-3 2-3 2a341 341 0 0 1-30 19l-11 7c-11 6-11 6-17 18l-1 3v5c-1 11-5 21-13 29-9 7-20 10-31 9-7-1-12-4-18-8l-2-1c-7-6-9-13-11-22v-14c0-9 1-17 4-25l1-3c4-12 11-25 20-33h2v-2h2v-2c8-9 19-16 30-22l27-18 8-5c14-11 23-23 26-41 4-21 0-39-11-57l-3-6h-2v-2h-2v-2l-2-1-6-4a71 71 0 0 0-44-12h-3a2070 2070 0 0 0-14 0c-23 0-45 3-62 20-10 9-15 20-18 33l-1 2v9c-1 11-4 22-12 30-10 8-20 11-33 10-10-2-19-7-25-16-10-16-6-38-2-55l5-15 1-2a137 137 0 0 1 14-29l2-3h2l1-2 4-7h2l2-5h2v-2h2v-2l4-3 2-2 6-4v-2l7-5 2-1a161 161 0 0 1 92-25h16Zm20 415 3 2v2h2c8 9 12 20 12 32-1 10-4 19-9 28h-2l-1 2-4 5h-2v2a855 855 0 0 1-9 4 49 49 0 0 1-53-9v-2h-2l-3-6-2-3a50 50 0 0 1-2-38c3-10 11-18 19-24 18-9 37-6 53 5Z" fill="#FDFDFD"/></svg>