<svg xmlns="http://www.w3.org/2000/svg" viewBox="0 0 512 512" fill="white"><path d="M195 350h-16v133h16zm92 133h-75V376zm95 0h-75l75-107zm17-133v133h-3 20V350zM108 483V383h36v100h18V350h-17l17-53v-50H90v236zm181-27-76-106h76zm16 0V350h75zm68-284H222l-50 153h251zm-247 91a18 18 0 1 1 0 36 18 18 0 0 1 0-36zm142 35h-36v-42l18-20 18 20zm94 0h-36v-42l18-20 18 20zm60-163h-37v19l37 111zm-239 97 1-66-11-28h124v19h-90zM82 215h89v-17H82zm55-123h-22l-33 88h89zm240 22h53V98h-53zM134 72V30h-16v42z" fill="#fff"/></svg>