<svg xmlns="http://www.w3.org/2000/svg" viewBox="0 0 512 512" fill="white" stroke="white"><path d="M271 18v145h67V35c-21-11-44-16-67-17zm-19 0c-22 1-45 7-65 17v128h65V18zm105 28v117h62a149 149 0 0 0-62-117zm-189 0-15 12c-27 24-46 59-49 105h64V46zm270 98v19h21v-19h-21zm0 38H85v32h374v-32h-21zm-334 51v130h64v-26a40 40 0 0 1-6 0c-22 0-40-18-40-39a40 40 0 0 1 46-40v-25h-64zm83 0v34a40 40 0 0 1 0 61v35h65V233h-65zm84 0v130h67V233h-67zm86 0v130h62V233h-62zm81 0v18h21v-18h-21zm-276 43c-12 0-22 10-22 22 0 11 10 21 22 21 11 0 21-10 21-21s-10-22-21-22zm276 67v20h21v-20h-21zM85 382v32h374v-32H85zm19 51v59h64v-59h-64zm83 0v59h65v-59h-65zm84 0v59h67v-59h-67zm86 0v59h62v-59h-62zm81 0v18h21v-18h-21z" fill="#fff"/></svg>