<svg xmlns="http://www.w3.org/2000/svg" viewBox="0 0 512 512" fill="white"><path d="M259 16a240 240 0 1 0 1 480 240 240 0 0 0-1-480zm34 21c26 4 51 12 74 25l-58 147c-15-7-31-11-48-11l32-161zm-68 0 24 161c-17 2-33 7-47 15L151 62a220 220 0 0 1 74-25zm193 64c18 18 33 40 43 63l-107 85a112 112 0 0 0-35-34l99-114zm-319 1 94 118a112 112 0 0 0-33 37L57 166c10-24 25-45 42-64zm379 116a224 224 0 0 1 3 38l-2 34-108 16a111 111 0 0 0-12-48l119-40zm-438 3 116 46a111 111 0 0 0-8 39L40 290a224 224 0 0 1-2-34c0-12 0-24 2-35zm131 90h177l119 24a222 222 0 0 1-415 0l119-24z" fill="#fff"/></svg>