<svg xmlns="http://www.w3.org/2000/svg" viewBox="0 0 512 512" fill="white" stroke="white"><path d="m197 35-25 3c21 12 40 29 52 58-25-23-44-39-76-54a686 686 0 0 0-26 6c22 11 49 26 75 51-58-25-82-31-121-39a966 966 0 0 0-36 12c54 3 103 19 187 47l2 1 1 2c6 5 16 9 26 9-3-39-19-68-59-96zm118 0c-40 28-56 57-59 96 10 0 20-4 26-9l1-2 2-1c84-28 133-44 188-47a967 967 0 0 0-37-12c-39 8-63 14-121 39 26-25 53-40 75-51a689 689 0 0 0-26-6c-32 15-51 31-76 54 12-29 31-46 52-58a592 592 0 0 0-25-3zM25 89v302c45 0 106 17 190 45V135C128 106 82 91 25 89zm462 0c-57 2-103 17-190 46v301c84-28 143-43 190-45V89zm-254 55v201c15 3 31 3 46 0V144a59 59 0 0 1-46 0zm0 219v14c15 4 31 3 46 0v-14c-15 3-31 3-46 0zm46 32c-15 3-31 3-46 0v49l8 8c4 2 7 3 15 3 12 0 16-4 23-11v-49z" fill="#fff"/></svg>