<svg xmlns="http://www.w3.org/2000/svg" viewBox="0 0 512 512" fill="white"><path d="M67 18a18 18 0 0 0-13 5 18 18 0 0 0 16 31l57 65-50 45 24 27c10-21 22-39 38-54l7 36c25-6 49-11 74-13l-24-27-39-13c17-12 37-23 59-30l-24-27-51 44-58-66c2-5 1-12-3-17a18 18 0 0 0-13-6zm384 0a18 18 0 0 0-13 6c-5 5-6 12-4 17l-58 66-50-44-24 27c21 7 41 18 58 30l-39 13-23 26c25 2 50 6 74 12l7-34c15 15 28 33 37 54l24-27-50-45 58-65a18 18 0 0 0 15-31 18 18 0 0 0-12-5zM265 177c-40-1-80 5-121 16-2 90 34 209 118 260 82-50 123-170 121-260-40-11-79-16-118-16zM147 330l-87 98-12 64 62-20 69-77c-13-20-24-42-32-65zm229 6c-9 22-20 44-33 63l64 73 62 20-12-64-81-92z" fill="#fff"/></svg>