<svg xmlns="http://www.w3.org/2000/svg" viewBox="0 0 512 512" fill="white" stroke="white"><path d="M27 22c76 53 150 143 173 236A414 414 0 0 0 23 68v36c199 131 142 248 332 393h58c-62-39-119-93-156-173 61 78 143 139 237 173h1V362a449 449 0 0 1-224-139c56 49 147 90 224 103v-51c-93-8-193-58-261-121-42-39-77-90-141-132H27zm353 103a24 24 0 1 0 0 48 24 24 0 0 0 0-48zM29 159c57 45 126 141 113 200a20 20 0 0 0-7-1 21 21 0 1 0 19 30c6-10 8-29 6-49-4-72-54-148-131-180zm421 6c-18 0-33 13-37 30-29 7-71-1-102-16a253 253 0 0 0 139 60 37 37 0 0 0 0-74zM170 288c12 34 17 80 10 114a32 32 0 1 0 46 9l-56-123z" fill="#fff"/></svg>