<svg xmlns="http://www.w3.org/2000/svg" viewBox="0 0 512 512" fill="white" stroke="white"><path d="M159 18c-9 20-23 56-36 96l29 1c5-26 16-51 27-77l7-20zm46 0-8 24 47 10 66-7c10-11 9-20 12-27zm-14 41c-14 17-18 37-20 56l42 2 21-1c-1-15-1-31 5-46zm111 5-45 5c-5 15-6 31-4 47h31c11-17 15-36 18-52zm-185 68c-11 6-11 19-9 32 31 12 56 14 89 17 0-15-2-31 4-47zm161 2c-19 2-39 4-59 1l-4 48c28 0 42 6 52 8 2-18 6-38 11-57zm-175 47c-12 29-15 56-9 83l42-25 11-46zm62 14-12 48 79 36 52 2c-9-25-17-48-18-72-33-8-67-15-101-14zm-25 62-44 27 9 58 106-53zm101 40 11 66c24 4 42-4 63-7l1-12-24-45zm-25 10-89 45 59 19c18 4 36 0 48-6-2-20-4-43-18-58zm-106 58c-15 4 9 92 23 89l62-20-20-48zm222 6c0 21 0 42-6 59 10 7 49 15 58 17-6-28-28-53-52-76zm-19 3c-38 7-76 15-118 14l17 40 47-15c13 6 35 10 50 14 5-18 5-35 4-53zm-61 60c-37 16-74 29-114 37-12 8-2 21 7 23h149zm24 3 40 57h105l-19-24z" fill="#fff"/></svg>