<svg xmlns="http://www.w3.org/2000/svg" viewBox="0 0 512 512" fill="white" stroke="white"><path d="M252 19c-18 0-35 10-43 29v10l-11-3c-15-3-26-1-34 4-7 5-12 13-12 25 0 10 2 16 5 20 3 5 6 7 12 8 10 3 26 0 41-8l6-4 5 5c8 8 14 11 20 12s13 0 24-3l10-3 2 10c2 13 15 24 29 24 13 0 23-9 27-22l2-7 8 1c9 1 19-5 25-11l6-7 7 6c19 16 35 17 47 12 12-6 20-19 20-39-1-19-11-31-26-36-14-5-34-4-51 8l-8 5-5-7c-7-9-17-15-27-17-9-1-18 1-25 8l-7 9-7-9a51 51 0 0 0-40-20zM65 120c-27 84-39 169-36 256 39 17 81 18 123 18a957 957 0 0 0 7-34c-32 2-64 2-94-9-3-67 6-122 28-187 27 6 55 8 83 7l-1-32c-37-2-74-9-110-19zm148 3c-6 3-13 6-20 7a1099 1099 0 0 1-29 294h270c-10-52-19-111-23-167-4-44-6-86-2-119-11-2-22-6-33-14-8 6-17 11-28 11-7 16-23 28-42 28-20 0-37-11-45-29a53 53 0 0 1-48-11zm-78 320-19 48h359l-22-48H135z" fill="#fff"/></svg>