<svg xmlns="http://www.w3.org/2000/svg" viewBox="23.4 1369.2 18.4 19.3" fill="white"><g><path stroke-width="0.5" d="m-658.7-263.3-2.5 1 .2.6a1.7 1.7 0 0 1-2.3 1.6l-1 2.5v3l1 2.5h.6a1.7 1.7 0 0 1 1.5 2.2l2.5 1c.3-.6.9-1 1.6-1 .6 0 1.2.4 1.5 1l2.5-1-.1-.6a1.7 1.7 0 0 1 2.3-1.6l1-2.5v-3l-1-2.5h-.7a1.7 1.7 0 0 1-1.5-2.2l-2.5-1c-.3.6-.9 1-1.5 1-.7 0-1.3-.4-1.6-1z" transform="matrix(1.26887 0 0 1.33297 866.4 1720.2)"/><path fill="white" stroke="none" d="M-657.1-261.2c-3.4 0-3 1.6-2.8 1.9-.5.8-1.3.8.2 2.3.5-.2.9.1.9.5 0 1-.1.8 1 1.6-.4-.8-.5-.2-.3-1.2l.4.3.6-.4.5.4.4-.3c.3 1 .1.4-.2 1.2 1-.8 1-.7 1-1.6 0-.4.4-.7.8-.5 1.5-1.5.8-1.5.2-2.3.3-.3.6-1.9-2.7-1.9zm-1.8 2.4h.2l1 .4c-.3.5-.8.3-1.3.2-.4-.4-.2-.6 0-.6zm3.5 0c.3 0 .5.2.1.6-.5 0-1 .3-1.2-.2l1-.4h.1zm-1.7 1.2.4.5-.3.1v-.2h-.2v.2h-.4z" transform="matrix(1.26887 0 0 1.33297 866.4 1720.2)"/><path stroke-width="0.4" fill="white" d="M-661-256.4c-.3 0-.5.1-.6.3v.5l-.3.3c-.1.3 0 .6.3.7 1-.2 2.3.4 3.2.8-1 .4-1.4.6-2.4.3-.3.1-.4.5-.3.7 0 .2.2.3.4.3v.5c0 .3.4.4.7.3.5-.9 1-1 2.2-1.4l.6-.2h.1l.7.2c1 .4 1.6.5 2.1 1.4.3.1.6 0 .8-.3v-.5c.1 0 .3-.1.3-.3.1-.2 0-.6-.3-.7-1 .3-1.4 0-2.4-.3 1-.4 2.3-1 3.2-.8.3 0 .5-.4.4-.7l-.4-.3v-.5a.6.6 0 0 0-.8-.2c-.4.8-1.9 1.3-3 1.7l-.6.3-.6-.3c-1.2-.4-2.6-.9-3.1-1.7h-.2z" transform="matrix(1.26887 0 0 1.33297 866.4 1720.2)"/></g></svg>