<svg xmlns="http://www.w3.org/2000/svg" viewBox="0 0 512 512" fill="white" stroke="white"><path stroke="white" fill="#fff" d="M274 3c23 14 29 47 35 70a288 288 0 0 1 7 88v16a21575 21575 0 0 1 0 135h-45v-29l-1-5v-3c0-7 0-13-4-18-5-3-7-3-12-3-4 0-6 1-9 4-3 6-3 13-4 20v34h-45a37291 37291 0 0 1 0-152c-1-46 1-112 31-149 12-12 32-15 47-8Zm-30 93c-3 6-3 12-3 18v3a678 678 0 0 0 0 19v2c0 7 0 12 4 17 5 4 8 4 13 4 4 0 6-2 9-4 4-6 4-12 4-19v-3a1915 1915 0 0 0 0-19v-2c0-6 0-12-4-17-5-4-8-5-13-4-5 0-7 2-10 5Zm-115 46c5 2 8 5 10 10a194 194 0 0 1 0 18c-1 9-1 9 3 16l7 3c9 6 15 16 18 27v39a17913 17913 0 0 1 0 44v43H81v-46a7280 7280 0 0 0 0-71c0-12 4-23 12-31 10-9 10-9 15-9v-3a1098 1098 0 0 1 0-14c-1-15-1-15 4-22 5-5 10-5 17-4Zm265 0c4 2 7 4 9 8l1 10a1040 1040 0 0 0 1 24c3 3 6 4 10 6 9 6 13 15 16 25v127h-85v-45a7949 7949 0 0 0 0-73c0-11 3-21 11-30l15-10a566228785 566228785 0 0 0 1-27c0-6 2-9 6-12 5-4 9-4 15-3ZM196 342h120v60H196v-60ZM81 372h86v40c0 6 0 11-4 16-4 3-7 5-13 5h-4a2957 2957 0 0 1-48 0h-4c-5-1-8-4-11-8-3-5-2-9-2-15v-38Zm380-85 11 5 3 2a5302 5302 0 0 1 29 18c4 3 6 5 8 9v7a85045123 85045123 0 0 1 1 62c-1 4-2 6-5 9-13 8-31 3-47 3V287Zm-410 0v115c-42 0-42 0-48-4-3-4-3-7-3-12a85045055 85045055 0 0 1-1-62c1-4 3-8 7-11l2-1 3-1 2-2 6-3 3-2 10-6 3-2 6-4 3-2 3-2 4-1Zm295 85h85v43c0 5 0 9-4 14-4 3-7 3-12 3a73788758 73788758 0 0 1-57 1c-5-1-8-4-11-7-2-5-1-10-1-15v-39Zm17 90h51c3 8 3 15 0 23-2 5-6 9-10 13l-5 8c-5 6-5 6-8 7-3 0-6 0-9-2a97 97 0 0 1-9-12l-3-4-2-2c-4-6-7-13-7-20v-3l2-8Zm-264 0h14a1773 1773 0 0 1 36 0c3 7 3 14 1 21-3 7-8 13-13 18l-5 7-4 4c-7 1-7 1-10-2l-9-10-2-2c-7-10-12-17-10-30l2-6Z"/></svg>